M48
;DRILL file {KiCad 4.0.4-stable} date 2017 January 13, Friday 02:46:49
;FORMAT={-:-/ absolute / inch / decimal}
FMAT,2
INCH,TZ
T1C0.016
T2C0.026
T3C0.028
T4C0.040
T5C0.122
%
G90
G05
M72
T1
X4.622Y-3.776
X4.788Y-3.864
X4.978Y-3.356
X5.03Y-3.892
X5.072Y-3.204
X5.114Y-3.532
X5.1339Y-3.748
X5.1339Y-3.8268
X5.134Y-3.344
X5.14Y-3.506
X5.142Y-3.47
X5.144Y-3.376
X5.146Y-3.564
X5.1693Y-5.0512
X5.17Y-3.564
X5.2Y-3.5328
X5.2008Y-4.5433
X5.2008Y-4.5433
X5.2047Y-3.748
X5.2047Y-3.8661
X5.232Y-3.594
X5.24Y-3.84
X5.244Y-3.76
X5.258Y-3.134
X5.342Y-3.81
X5.388Y-3.812
X5.432Y-3.818
X5.518Y-3.33
X5.562Y-3.356
X5.578Y-3.294
X5.6299Y-4.5669
X5.6299Y-4.5669
X5.6378Y-5.0433
X5.706Y-2.98
X5.706Y-3.346
X5.712Y-3.194
X5.72Y-3.47
X5.724Y-3.838
X5.728Y-3.502
X5.728Y-3.564
X5.728Y-3.598
X5.728Y-3.63
X5.762Y-3.5328
X5.7726Y-4.1467
X5.818Y-3.852
X5.8189Y-4.0551
X5.8346Y-3.9724
X5.842Y-3.328
X5.8425Y-4.122
X5.8425Y-4.122
X5.846Y-3.406
X5.846Y-3.878
X5.8976Y-4.0866
X5.9409Y-3.8294
X5.9803Y-3.8819
X6.0512Y-3.9213
X6.0512Y-4.0906
X6.0512Y-4.5276
X6.0512Y-4.5276
X6.132Y-3.146
X6.148Y-3.106
X6.2047Y-4.7992
X6.2047Y-4.7992
X6.214Y-3.244
X6.2402Y-4.685
X6.266Y-3.714
X6.272Y-3.444
X6.2775Y-4.4055
T4
X4.516Y-3.528
X4.516Y-3.628
X4.516Y-3.728
X4.516Y-3.828
X4.516Y-3.928
X4.516Y-4.028
X4.516Y-4.128
X4.516Y-4.228
X4.516Y-4.362
X4.516Y-4.462
X4.516Y-4.562
X4.516Y-4.662
X4.516Y-4.762
X4.516Y-4.862
X5.962Y-3.356
X5.962Y-3.456
X6.062Y-3.356
X6.062Y-3.456
X6.162Y-3.356
X6.162Y-3.456
X6.35Y-3.112
X6.35Y-3.212
X6.35Y-3.312
X6.35Y-3.412
X6.35Y-3.512
X6.35Y-3.612
X6.35Y-3.712
X6.35Y-3.812
X6.35Y-3.912
X6.35Y-4.012
X6.35Y-4.158
X6.35Y-4.258
X6.35Y-4.358
X6.35Y-4.458
X6.35Y-4.558
X6.35Y-4.658
X6.35Y-4.758
X6.35Y-4.858
T5
X4.558Y-3.062
X4.5669Y-5.3937
X6.2992Y-5.3937
T2
X4.7725Y-3.1801G85X4.7725Y-3.1959
G05
X4.9635Y-3.1801G85X4.9635Y-3.1959
G05
T3
X4.7607Y-3.06G85X4.7607Y-3.0797
G05
X4.9753Y-3.06G85X4.9753Y-3.0797
G05
T0
M30
