G04 #@! TF.FileFunction,Legend,Bot*
%FSLAX46Y46*%
G04 Gerber Fmt 4.6, Leading zero omitted, Abs format (unit mm)*
G04 Created by KiCad (PCBNEW 4.0.4-stable) date 2017 January 13, Friday 02:46:46*
%MOMM*%
%LPD*%
G01*
G04 APERTURE LIST*
%ADD10C,0.100000*%
%ADD11C,0.010000*%
G04 APERTURE END LIST*
D10*
D11*
G36*
X136532243Y-91124424D02*
X136195000Y-91159165D01*
X135520144Y-91261419D01*
X135016975Y-91344966D01*
X134605417Y-91424712D01*
X134205392Y-91515563D01*
X133972500Y-91572855D01*
X133528657Y-91693676D01*
X133162154Y-91810683D01*
X132989974Y-91880754D01*
X132738735Y-91980241D01*
X132633756Y-91997999D01*
X132429894Y-92052832D01*
X132052310Y-92201201D01*
X131552349Y-92418910D01*
X130981357Y-92681764D01*
X130390681Y-92965570D01*
X129831665Y-93246131D01*
X129355655Y-93499253D01*
X129013997Y-93700740D01*
X128998103Y-93711182D01*
X127973504Y-94427796D01*
X127090048Y-95137480D01*
X126279197Y-95903454D01*
X125472414Y-96788940D01*
X124866372Y-97522500D01*
X124416807Y-98099540D01*
X124003368Y-98659265D01*
X123653783Y-99161222D01*
X123395782Y-99564954D01*
X123257097Y-99830007D01*
X123241000Y-99893749D01*
X123186507Y-100063843D01*
X123044493Y-100384627D01*
X122870176Y-100738237D01*
X122583753Y-101308030D01*
X122372386Y-101768663D01*
X122187061Y-102232616D01*
X122030173Y-102666000D01*
X121873130Y-103123534D01*
X121752434Y-103519575D01*
X121655632Y-103913929D01*
X121570272Y-104366401D01*
X121483899Y-104936796D01*
X121384062Y-105684918D01*
X121355825Y-105904500D01*
X121218359Y-107303373D01*
X121190759Y-108579320D01*
X121275381Y-109839541D01*
X121471672Y-111175000D01*
X121585113Y-111723299D01*
X121731255Y-112309953D01*
X121891580Y-112872440D01*
X122047570Y-113348242D01*
X122180704Y-113674838D01*
X122240963Y-113772150D01*
X122340379Y-113997771D01*
X122352000Y-114104336D01*
X122424152Y-114413511D01*
X122623720Y-114884152D01*
X122925372Y-115474786D01*
X123303777Y-116143941D01*
X123733604Y-116850144D01*
X124189522Y-117551921D01*
X124646198Y-118207800D01*
X125078303Y-118776309D01*
X125460505Y-119215973D01*
X125496811Y-119253077D01*
X126263043Y-120013445D01*
X126912776Y-120626824D01*
X127498330Y-121136007D01*
X128072028Y-121583783D01*
X128686189Y-122012943D01*
X129393135Y-122466277D01*
X129527500Y-122549563D01*
X130598782Y-123141709D01*
X131788823Y-123682114D01*
X132999646Y-124130776D01*
X134133278Y-124447694D01*
X134226500Y-124468033D01*
X135567330Y-124718984D01*
X136766945Y-124863300D01*
X137912096Y-124906366D01*
X139089532Y-124853569D01*
X139624000Y-124803093D01*
X140487581Y-124705697D01*
X141168460Y-124613177D01*
X141737188Y-124510923D01*
X142264315Y-124384324D01*
X142820391Y-124218769D01*
X143434000Y-124014072D01*
X144791456Y-123500454D01*
X146014909Y-122927206D01*
X147156104Y-122261070D01*
X148266779Y-121468788D01*
X149398678Y-120517101D01*
X150509370Y-119466123D01*
X150645685Y-119326812D01*
X149029938Y-119326812D01*
X149022716Y-119425749D01*
X148855518Y-119639193D01*
X148571582Y-119929273D01*
X148214150Y-120258118D01*
X147826461Y-120587858D01*
X147451755Y-120880620D01*
X147133272Y-121098534D01*
X146914252Y-121203730D01*
X146882058Y-121208000D01*
X146723806Y-121287121D01*
X146714834Y-121303250D01*
X146548247Y-121481661D01*
X146262438Y-121666193D01*
X145974638Y-121789104D01*
X145847000Y-121804711D01*
X145762414Y-121747834D01*
X145703336Y-121580774D01*
X145670513Y-121316053D01*
X144649736Y-121316053D01*
X144643358Y-121836202D01*
X144618572Y-122253170D01*
X144579908Y-122506985D01*
X144556153Y-122554384D01*
X144370486Y-122635367D01*
X144010837Y-122769078D01*
X143545616Y-122932336D01*
X143043234Y-123101958D01*
X142572100Y-123254764D01*
X142200626Y-123367573D01*
X142020789Y-123413516D01*
X141664508Y-123505675D01*
X141380677Y-123602210D01*
X141045185Y-123698610D01*
X140809177Y-123725782D01*
X140601457Y-123733257D01*
X140239930Y-123758649D01*
X139797122Y-123795407D01*
X139345556Y-123836978D01*
X138957759Y-123876811D01*
X138706255Y-123908354D01*
X138650689Y-123920775D01*
X138523547Y-123925449D01*
X138200382Y-123923125D01*
X137739055Y-123914430D01*
X137480879Y-123908056D01*
X136699369Y-123849648D01*
X135762505Y-123718303D01*
X134754279Y-123526120D01*
X134609247Y-123494388D01*
X133963880Y-123346730D01*
X133395325Y-123209043D01*
X132956101Y-123094598D01*
X132698726Y-123016666D01*
X132667557Y-123003768D01*
X132355629Y-122857897D01*
X131939650Y-122671251D01*
X131546781Y-122500359D01*
X131369000Y-122426482D01*
X130848814Y-122175552D01*
X130193571Y-121794259D01*
X129459045Y-121319873D01*
X128701008Y-120789664D01*
X127975231Y-120240902D01*
X127442828Y-119802817D01*
X126570149Y-119049859D01*
X127096325Y-118504622D01*
X127514672Y-118044998D01*
X127860948Y-117615172D01*
X128099254Y-117263382D01*
X128193693Y-117037866D01*
X128194000Y-117029637D01*
X128287320Y-116855101D01*
X128336919Y-116816662D01*
X128423483Y-116839429D01*
X128430759Y-117078377D01*
X128414586Y-117221916D01*
X128410434Y-117865014D01*
X128548219Y-118484488D01*
X128801340Y-119021543D01*
X129143201Y-119417385D01*
X129490808Y-119600808D01*
X129721868Y-119580241D01*
X129809175Y-119426280D01*
X129954707Y-119207581D01*
X130233988Y-118974164D01*
X130303136Y-118930782D01*
X130566979Y-118739043D01*
X130723754Y-118559271D01*
X130738770Y-118443329D01*
X130638750Y-118429039D01*
X130461442Y-118435128D01*
X130135295Y-118431955D01*
X130018556Y-118429039D01*
X129677401Y-118399190D01*
X129508746Y-118302522D01*
X129431667Y-118089300D01*
X129426986Y-118065473D01*
X129397180Y-117726095D01*
X129490643Y-117604687D01*
X129722321Y-117689475D01*
X129822167Y-117754154D01*
X130256675Y-118001573D01*
X130835913Y-118262780D01*
X131485921Y-118511602D01*
X132132734Y-118721862D01*
X132702392Y-118867386D01*
X133120931Y-118921999D01*
X133122102Y-118922000D01*
X133330779Y-118896536D01*
X133323183Y-118794656D01*
X133284342Y-118743960D01*
X133053474Y-118580094D01*
X132792541Y-118481195D01*
X132524304Y-118375145D01*
X132120291Y-118169551D01*
X131657157Y-117904108D01*
X131542226Y-117833735D01*
X131117213Y-117576168D01*
X130775032Y-117380577D01*
X130571906Y-117278671D01*
X130544502Y-117271000D01*
X130361214Y-117189100D01*
X130088150Y-116987027D01*
X129798715Y-116730216D01*
X129566318Y-116484103D01*
X129464367Y-116314126D01*
X129464000Y-116307828D01*
X129512185Y-116157954D01*
X129673406Y-116164504D01*
X129972659Y-116335341D01*
X130293020Y-116568600D01*
X131049452Y-117058528D01*
X131846229Y-117423778D01*
X132403507Y-117584981D01*
X132766348Y-117663331D01*
X133048274Y-117732564D01*
X133051750Y-117733539D01*
X133259704Y-117760635D01*
X133266323Y-117677030D01*
X133089097Y-117500990D01*
X132745514Y-117250785D01*
X132353250Y-117003890D01*
X131917652Y-116732019D01*
X131566186Y-116491237D01*
X131357690Y-116322587D01*
X131330940Y-116290819D01*
X131158828Y-116143135D01*
X131091503Y-116128000D01*
X130884237Y-116031570D01*
X130653545Y-115801906D01*
X130470134Y-115528445D01*
X130404712Y-115300627D01*
X130411982Y-115268480D01*
X130492381Y-115156723D01*
X130632013Y-115214773D01*
X130769065Y-115332643D01*
X131117796Y-115592114D01*
X131557515Y-115841076D01*
X131995983Y-116034102D01*
X132340961Y-116125765D01*
X132384020Y-116128000D01*
X132673593Y-116176298D01*
X133044714Y-116295050D01*
X133107079Y-116320167D01*
X133410262Y-116430727D01*
X133597110Y-116468682D01*
X133616737Y-116462596D01*
X133601899Y-116417777D01*
X133485506Y-116322054D01*
X133237885Y-116155388D01*
X132829362Y-115897738D01*
X132275034Y-115556461D01*
X131927935Y-115308564D01*
X131491929Y-114947149D01*
X131176772Y-114660794D01*
X129965109Y-114660794D01*
X129627294Y-115013397D01*
X129328437Y-115286668D01*
X129161561Y-115345851D01*
X129128312Y-115190742D01*
X129151755Y-115072780D01*
X129222111Y-114761284D01*
X129252211Y-114596530D01*
X129304961Y-114444546D01*
X128452480Y-114444546D01*
X128379433Y-114704804D01*
X128245370Y-115013901D01*
X128113872Y-115196237D01*
X128089161Y-115210446D01*
X127928925Y-115156328D01*
X127657736Y-114970371D01*
X127448746Y-114794520D01*
X126939843Y-114334757D01*
X126754646Y-114628128D01*
X126522753Y-115045584D01*
X126471297Y-115331823D01*
X126613768Y-115547057D01*
X126963657Y-115751498D01*
X127011382Y-115774044D01*
X127361857Y-115938753D01*
X127604141Y-116054567D01*
X127668737Y-116087036D01*
X127646714Y-116204246D01*
X127508452Y-116449487D01*
X127299651Y-116755105D01*
X127066010Y-117053446D01*
X126883738Y-117249169D01*
X126635580Y-117448429D01*
X126296474Y-117683148D01*
X125958965Y-117893029D01*
X125715598Y-118017773D01*
X125691904Y-118025710D01*
X125615867Y-117930736D01*
X125434541Y-117670761D01*
X125181052Y-117293758D01*
X125061161Y-117112250D01*
X124764952Y-116659572D01*
X124507337Y-116262318D01*
X124332038Y-115988023D01*
X124300623Y-115937500D01*
X124092714Y-115557100D01*
X123834024Y-115027714D01*
X123564628Y-114437549D01*
X123324604Y-113874815D01*
X123154026Y-113427719D01*
X123136948Y-113376211D01*
X123007507Y-112973923D01*
X125092754Y-112966155D01*
X125788327Y-112965747D01*
X126385498Y-112969563D01*
X126842308Y-112976995D01*
X127116798Y-112987437D01*
X127178000Y-112996320D01*
X127101541Y-113104733D01*
X126908413Y-113334583D01*
X126798780Y-113459007D01*
X126559716Y-113784664D01*
X126533075Y-114002823D01*
X126728329Y-114124860D01*
X127154948Y-114162147D01*
X127379522Y-114156470D01*
X127933043Y-114141699D01*
X128271286Y-114171029D01*
X128431887Y-114265098D01*
X128452480Y-114444546D01*
X129304961Y-114444546D01*
X129324538Y-114388141D01*
X129486556Y-114379515D01*
X129682805Y-114484493D01*
X129965109Y-114660794D01*
X131176772Y-114660794D01*
X131163503Y-114648738D01*
X130905815Y-114432490D01*
X130709466Y-114309514D01*
X130729834Y-114271528D01*
X130928139Y-114236863D01*
X131228333Y-114211589D01*
X131554368Y-114201777D01*
X131830197Y-114213496D01*
X131862494Y-114217479D01*
X131981071Y-114158437D01*
X131961730Y-114042027D01*
X131963087Y-113871232D01*
X132085241Y-113858992D01*
X132194500Y-113969000D01*
X132366916Y-114061967D01*
X132631690Y-114096000D01*
X132938390Y-114004635D01*
X133078403Y-113759784D01*
X133044950Y-113405308D01*
X133026414Y-113368856D01*
X131824659Y-113368856D01*
X131778300Y-113437885D01*
X131641102Y-113482766D01*
X131375959Y-113508682D01*
X130945765Y-113520812D01*
X130313411Y-113524338D01*
X129998098Y-113524500D01*
X129267731Y-113522174D01*
X128747058Y-113511384D01*
X128391787Y-113486408D01*
X128157629Y-113441526D01*
X128000291Y-113371017D01*
X127875483Y-113269158D01*
X127853487Y-113247486D01*
X127576474Y-112970473D01*
X129551127Y-112960029D01*
X130237789Y-112952177D01*
X130835447Y-112937376D01*
X131297655Y-112917401D01*
X131577971Y-112894024D01*
X131637890Y-112880297D01*
X131751390Y-112886078D01*
X131759438Y-112913754D01*
X131789119Y-113113897D01*
X131817286Y-113270500D01*
X131824659Y-113368856D01*
X133026414Y-113368856D01*
X132831249Y-112985070D01*
X132808403Y-112953000D01*
X132546605Y-112577901D01*
X132312463Y-112219023D01*
X132276430Y-112160052D01*
X132080195Y-111882623D01*
X131947952Y-111836272D01*
X131853668Y-112014567D01*
X131843079Y-112052999D01*
X131771704Y-112183806D01*
X131604519Y-112264906D01*
X131285518Y-112312728D01*
X130868865Y-112338749D01*
X130406148Y-112345830D01*
X130044287Y-112324287D01*
X129856746Y-112278759D01*
X129851758Y-112274509D01*
X129799939Y-112090677D01*
X129801960Y-111764601D01*
X129813784Y-111657078D01*
X129882249Y-111146637D01*
X129450875Y-111238983D01*
X129005263Y-111377680D01*
X128778428Y-111574804D01*
X128736203Y-111865653D01*
X128751378Y-111961636D01*
X128822651Y-112318000D01*
X126317576Y-112330305D01*
X125178750Y-112333782D01*
X124278686Y-112331614D01*
X123602203Y-112323519D01*
X123134121Y-112309215D01*
X122859257Y-112288420D01*
X122764896Y-112264283D01*
X122721392Y-112128360D01*
X122647734Y-111813380D01*
X122558830Y-111390257D01*
X122469588Y-110929904D01*
X122395729Y-110508250D01*
X122318557Y-110032000D01*
X125986529Y-110008555D01*
X126937806Y-110001878D01*
X127814997Y-109994583D01*
X128583476Y-109987050D01*
X129208621Y-109979655D01*
X129655805Y-109972777D01*
X129890404Y-109966793D01*
X129908500Y-109965757D01*
X130617674Y-109884187D01*
X131195878Y-109762908D01*
X131593691Y-109613763D01*
X131706945Y-109534906D01*
X131873914Y-109401941D01*
X132012328Y-109418322D01*
X132212469Y-109603313D01*
X132258896Y-109652670D01*
X132395979Y-109791213D01*
X132533542Y-109884937D01*
X132720154Y-109941422D01*
X133004385Y-109968250D01*
X133434803Y-109973003D01*
X134059978Y-109963261D01*
X134227396Y-109959948D01*
X134870458Y-109946699D01*
X135438379Y-109934175D01*
X135873772Y-109923699D01*
X136119248Y-109916592D01*
X136132798Y-109916047D01*
X136393703Y-109825404D01*
X136696205Y-109618059D01*
X136733948Y-109584308D01*
X137079800Y-109263616D01*
X137570537Y-109588370D01*
X138168291Y-109858066D01*
X138883665Y-109991965D01*
X139612715Y-109978469D01*
X140091483Y-109869689D01*
X140621114Y-109687216D01*
X140560050Y-111688388D01*
X138569349Y-111717444D01*
X137762817Y-111723782D01*
X137181999Y-111714510D01*
X136798986Y-111687864D01*
X136585869Y-111642080D01*
X136517811Y-111587750D01*
X136352368Y-111442815D01*
X136082495Y-111470915D01*
X135776845Y-111659185D01*
X135690498Y-111742776D01*
X135502297Y-111981383D01*
X135491006Y-112150134D01*
X135557455Y-112251433D01*
X135659806Y-112543749D01*
X135662757Y-113031192D01*
X135658993Y-113072797D01*
X135632867Y-113505394D01*
X135682671Y-113783895D01*
X135850532Y-113942033D01*
X136178574Y-114013542D01*
X136708923Y-114032154D01*
X136857442Y-114032500D01*
X137371719Y-114035253D01*
X137681239Y-114053761D01*
X137835246Y-114103396D01*
X137882981Y-114199530D01*
X137874520Y-114350000D01*
X137848969Y-114735372D01*
X137844787Y-115016750D01*
X137833924Y-115207568D01*
X137759990Y-115321612D01*
X137571592Y-115378253D01*
X137217337Y-115396862D01*
X136834352Y-115397600D01*
X136430786Y-115319912D01*
X136215612Y-115126973D01*
X136000310Y-114920066D01*
X135822271Y-114858000D01*
X135577844Y-114955680D01*
X135293298Y-115192903D01*
X135049615Y-115485938D01*
X134927777Y-115751057D01*
X134925000Y-115785699D01*
X134982670Y-115895876D01*
X135174614Y-115970188D01*
X135529234Y-116011600D01*
X136074936Y-116023073D01*
X136840121Y-116007573D01*
X137000495Y-116002246D01*
X137336446Y-115996109D01*
X137512142Y-116040578D01*
X137547684Y-116185993D01*
X137463176Y-116482696D01*
X137333026Y-116834997D01*
X137172272Y-117093233D01*
X136868021Y-117454173D01*
X136475953Y-117862902D01*
X136051750Y-118264504D01*
X135651094Y-118604064D01*
X135329664Y-118826667D01*
X135295094Y-118844905D01*
X134863933Y-119059996D01*
X134516883Y-118641748D01*
X134300338Y-118348664D01*
X134177001Y-118119643D01*
X134166417Y-118072245D01*
X134068376Y-117870813D01*
X134021849Y-117833754D01*
X133946954Y-117859359D01*
X133938069Y-118086756D01*
X133977098Y-118429508D01*
X134036846Y-118871536D01*
X134059879Y-119160701D01*
X134045327Y-119395599D01*
X133992320Y-119674826D01*
X133965009Y-119799067D01*
X133869324Y-120231634D01*
X134612301Y-120144311D01*
X135218686Y-120006928D01*
X135840624Y-119723413D01*
X136518703Y-119270881D01*
X137274611Y-118643323D01*
X137599982Y-118364662D01*
X137848940Y-118172510D01*
X137962246Y-118110226D01*
X138135670Y-118157720D01*
X138495411Y-118265735D01*
X138986043Y-118416837D01*
X139552141Y-118593593D01*
X140138280Y-118778571D01*
X140689034Y-118954335D01*
X141148979Y-119103454D01*
X141462689Y-119208494D01*
X141529000Y-119232104D01*
X141751112Y-119311020D01*
X142010892Y-119395424D01*
X142352758Y-119498459D01*
X142821127Y-119633265D01*
X143460415Y-119812983D01*
X144005500Y-119964792D01*
X144640500Y-120141268D01*
X144649736Y-121316053D01*
X145670513Y-121316053D01*
X145664123Y-121264517D01*
X145639134Y-120760047D01*
X145627309Y-120285656D01*
X145598117Y-118795000D01*
X146135309Y-118784356D01*
X147041410Y-118766092D01*
X147724777Y-118753709D01*
X148216652Y-118749725D01*
X148548278Y-118756657D01*
X148750898Y-118777021D01*
X148855756Y-118813334D01*
X148894093Y-118868112D01*
X148897154Y-118943873D01*
X148895025Y-119006666D01*
X148949337Y-119245088D01*
X149029938Y-119326812D01*
X150645685Y-119326812D01*
X150866455Y-119101192D01*
X151141125Y-118797680D01*
X151291743Y-118602622D01*
X151308001Y-118563917D01*
X151384749Y-118399817D01*
X151571730Y-118151235D01*
X151593751Y-118125836D01*
X151918977Y-117741218D01*
X152191350Y-117376365D01*
X152449290Y-116970248D01*
X152731220Y-116461834D01*
X153075562Y-115790095D01*
X153119836Y-115701740D01*
X153905523Y-113949616D01*
X153917936Y-113912366D01*
X152816210Y-113912366D01*
X152784005Y-114038075D01*
X152658775Y-114339236D01*
X152462616Y-114764887D01*
X152312063Y-115075042D01*
X151890526Y-115867348D01*
X151418094Y-116655442D01*
X150937509Y-117373618D01*
X150491507Y-117956166D01*
X150295482Y-118175372D01*
X150118525Y-118338470D01*
X149992433Y-118385181D01*
X149909376Y-118289410D01*
X149880846Y-118131788D01*
X148905177Y-118131788D01*
X147257757Y-118114144D01*
X145610338Y-118096500D01*
X145617221Y-117119184D01*
X145619857Y-116703797D01*
X145645975Y-116411268D01*
X145733097Y-116222468D01*
X145918748Y-116118267D01*
X146240452Y-116079536D01*
X146735733Y-116087146D01*
X147442113Y-116121966D01*
X147561500Y-116128000D01*
X148831500Y-116191500D01*
X148868339Y-117161644D01*
X148905177Y-118131788D01*
X149880846Y-118131788D01*
X149861527Y-118025062D01*
X149841056Y-117566042D01*
X149840135Y-116886254D01*
X149842190Y-116664479D01*
X149844734Y-116041558D01*
X149833304Y-115633700D01*
X149802722Y-115402123D01*
X149747815Y-115308042D01*
X149663404Y-115312675D01*
X149661864Y-115313307D01*
X149439395Y-115364429D01*
X149050924Y-115418304D01*
X148620806Y-115459815D01*
X147775111Y-115525475D01*
X147731806Y-114683471D01*
X147688500Y-113841467D01*
X150038000Y-113826686D01*
X150940048Y-113822064D01*
X151620331Y-113821740D01*
X152111064Y-113826708D01*
X152444462Y-113837961D01*
X152652739Y-113856493D01*
X152768109Y-113883297D01*
X152816210Y-113912366D01*
X153917936Y-113912366D01*
X154472286Y-112248829D01*
X154831255Y-110543053D01*
X154877331Y-110041399D01*
X153873783Y-110041399D01*
X153812000Y-110512949D01*
X153752169Y-110854597D01*
X153646952Y-111351516D01*
X153515823Y-111913397D01*
X153470695Y-112095653D01*
X153191172Y-113206806D01*
X150471586Y-113196671D01*
X147752000Y-113186537D01*
X147752000Y-112117268D01*
X147746193Y-111631956D01*
X147730706Y-111261677D01*
X147708442Y-111065024D01*
X147699029Y-111048000D01*
X147561757Y-111093773D01*
X147270132Y-111210570D01*
X147064029Y-111297486D01*
X146656110Y-111506909D01*
X146491624Y-111685211D01*
X146563241Y-111841675D01*
X146609000Y-111873500D01*
X146682688Y-112036254D01*
X146728514Y-112363105D01*
X146736000Y-112579495D01*
X146736000Y-113207000D01*
X145792718Y-113207000D01*
X145296077Y-113198820D01*
X144983346Y-113161882D01*
X144784638Y-113077586D01*
X144630069Y-112927334D01*
X144599690Y-112889500D01*
X144387577Y-112657025D01*
X144204697Y-112598603D01*
X143982086Y-112720337D01*
X143712110Y-112968069D01*
X143432471Y-113267131D01*
X143302277Y-113490417D01*
X143339849Y-113648530D01*
X143563507Y-113752069D01*
X143991571Y-113811638D01*
X144642363Y-113837836D01*
X145222388Y-113842000D01*
X145869768Y-113839562D01*
X146305760Y-113851116D01*
X146572570Y-113904958D01*
X146712406Y-114029386D01*
X146767476Y-114252698D01*
X146779986Y-114603191D01*
X146784699Y-114889438D01*
X146799500Y-115492377D01*
X146221650Y-115492688D01*
X145840831Y-115463224D01*
X145561174Y-115388666D01*
X145500699Y-115349898D01*
X145263959Y-115259032D01*
X144976259Y-115327987D01*
X144708342Y-115506050D01*
X144530949Y-115742508D01*
X144514823Y-115986647D01*
X144540948Y-116037915D01*
X144582191Y-116221027D01*
X144617805Y-116599921D01*
X144643607Y-117116383D01*
X144654698Y-117620250D01*
X144657242Y-118267578D01*
X144638511Y-118696147D01*
X144581866Y-118941154D01*
X144470671Y-119037796D01*
X144288290Y-119021271D01*
X144034230Y-118932922D01*
X143724713Y-118849340D01*
X143295043Y-118772172D01*
X143095266Y-118746287D01*
X142602830Y-118668025D01*
X142124048Y-118555929D01*
X141985031Y-118513114D01*
X141508455Y-118350500D01*
X141512079Y-116953500D01*
X141514469Y-116064500D01*
X140599132Y-116064500D01*
X140576500Y-118148270D01*
X140158404Y-118133356D01*
X139854224Y-118095538D01*
X139682578Y-118023929D01*
X139678286Y-118018089D01*
X139528359Y-117951665D01*
X139201894Y-117880891D01*
X138851143Y-117831173D01*
X138425874Y-117771568D01*
X138207588Y-117702658D01*
X138149490Y-117604543D01*
X138165405Y-117539555D01*
X138250489Y-117260776D01*
X138315798Y-116982607D01*
X138403611Y-116702239D01*
X138497404Y-116562362D01*
X138592554Y-116391622D01*
X138608000Y-116266435D01*
X138636226Y-116151869D01*
X138754597Y-116084903D01*
X139013658Y-116054635D01*
X139463951Y-116050160D01*
X139603566Y-116051681D01*
X140599132Y-116064500D01*
X141514469Y-116064500D01*
X141516891Y-115164039D01*
X141519524Y-114191250D01*
X140563800Y-114191250D01*
X140551873Y-114409839D01*
X140537153Y-114768134D01*
X140532050Y-114911933D01*
X140513000Y-115473866D01*
X139665948Y-115419546D01*
X139229242Y-115384404D01*
X138904545Y-115344887D01*
X138763912Y-115310244D01*
X138748247Y-115163697D01*
X138768777Y-114849883D01*
X138796133Y-114621216D01*
X138883336Y-113987170D01*
X139729918Y-114009835D01*
X140233106Y-114042219D01*
X140503085Y-114108606D01*
X140563800Y-114191250D01*
X141519524Y-114191250D01*
X141521095Y-113611204D01*
X141522941Y-112825669D01*
X140582273Y-112825669D01*
X140581693Y-113031239D01*
X140556676Y-113180589D01*
X140472306Y-113282681D01*
X140293670Y-113346474D01*
X139985851Y-113380928D01*
X139513936Y-113395004D01*
X138843008Y-113397660D01*
X138354000Y-113397500D01*
X136639500Y-113397500D01*
X136619462Y-112870192D01*
X136599423Y-112342884D01*
X138590848Y-112335162D01*
X140582273Y-112327439D01*
X140582273Y-112825669D01*
X141522941Y-112825669D01*
X141524229Y-112277620D01*
X141525832Y-111145913D01*
X141525442Y-110198708D01*
X141522598Y-109418631D01*
X141516839Y-108788308D01*
X141507703Y-108290364D01*
X141499756Y-108055782D01*
X140144346Y-108055782D01*
X140135586Y-108127000D01*
X139975890Y-108451239D01*
X139642412Y-108669442D01*
X139197965Y-108767971D01*
X138705364Y-108733191D01*
X138227424Y-108551464D01*
X138214682Y-108544021D01*
X137976863Y-108381596D01*
X137830926Y-108193498D01*
X137735400Y-107901131D01*
X137659580Y-107492000D01*
X137623827Y-107109353D01*
X137673464Y-106959873D01*
X136353230Y-106959873D01*
X136351087Y-107286995D01*
X136338688Y-107722888D01*
X136273853Y-108005857D01*
X136116276Y-108236686D01*
X135878991Y-108467469D01*
X135568686Y-108802394D01*
X135463013Y-109062912D01*
X135472559Y-109153554D01*
X135489511Y-109299439D01*
X135402669Y-109365551D01*
X135156086Y-109370483D01*
X134882624Y-109349599D01*
X134468094Y-109317628D01*
X128257500Y-109317628D01*
X127964364Y-109389064D01*
X127758933Y-109408047D01*
X127348332Y-109422674D01*
X126781359Y-109432759D01*
X126106808Y-109438114D01*
X125373477Y-109438553D01*
X124630161Y-109433889D01*
X123925657Y-109423936D01*
X123308762Y-109408506D01*
X123265026Y-109407043D01*
X123127664Y-109383578D01*
X123129507Y-109303581D01*
X123291542Y-109132116D01*
X123582526Y-108878485D01*
X124004589Y-108505956D01*
X124427976Y-108109860D01*
X124645239Y-107894235D01*
X124916209Y-107622394D01*
X125275495Y-107272121D01*
X125681135Y-106883039D01*
X126091167Y-106494769D01*
X126463629Y-106146933D01*
X126756560Y-105879152D01*
X126927997Y-105731047D01*
X126954258Y-105714000D01*
X126969485Y-105831131D01*
X126981043Y-106143061D01*
X126987054Y-106590597D01*
X126987500Y-106761750D01*
X126998489Y-107319870D01*
X127043853Y-107712023D01*
X127142188Y-108025751D01*
X127312092Y-108348594D01*
X127331475Y-108381000D01*
X127587852Y-108749788D01*
X127852277Y-109043768D01*
X127966475Y-109135064D01*
X128257500Y-109317628D01*
X134468094Y-109317628D01*
X134411718Y-109313280D01*
X133977009Y-109287200D01*
X133829309Y-109281268D01*
X133432117Y-109270000D01*
X133403397Y-106730493D01*
X132056035Y-106730493D01*
X132039669Y-107075811D01*
X131930565Y-107424571D01*
X131889086Y-107523421D01*
X131688532Y-107908554D01*
X131467030Y-108222784D01*
X131399104Y-108293083D01*
X130891646Y-108587509D01*
X130286240Y-108695413D01*
X129657406Y-108616743D01*
X129079665Y-108351447D01*
X129000982Y-108294765D01*
X128551726Y-107800344D01*
X128310009Y-107167115D01*
X128279011Y-106407111D01*
X128364761Y-105887140D01*
X128531783Y-105461778D01*
X128849029Y-105082599D01*
X129216663Y-104787895D01*
X129594693Y-104558284D01*
X129930554Y-104479395D01*
X130212313Y-104493991D01*
X130890971Y-104650595D01*
X131388503Y-104952149D01*
X131734316Y-105427961D01*
X131957815Y-106107339D01*
X131989511Y-106265263D01*
X132056035Y-106730493D01*
X133403397Y-106730493D01*
X133395177Y-106003740D01*
X134858534Y-106017620D01*
X135495186Y-106019982D01*
X135920783Y-106036556D01*
X136177356Y-106103086D01*
X136306934Y-106255318D01*
X136351549Y-106528999D01*
X136353230Y-106959873D01*
X137673464Y-106959873D01*
X137696007Y-106891986D01*
X137912680Y-106818727D01*
X138310406Y-106868401D01*
X138614237Y-106939114D01*
X139286647Y-107124645D01*
X139741640Y-107302356D01*
X140013439Y-107498968D01*
X140136267Y-107741203D01*
X140144346Y-108055782D01*
X141499756Y-108055782D01*
X141494730Y-107907424D01*
X141477459Y-107622115D01*
X141455427Y-107417061D01*
X141428175Y-107274889D01*
X141395240Y-107178224D01*
X141356161Y-107109692D01*
X141310478Y-107051918D01*
X141257729Y-106987527D01*
X141247149Y-106973490D01*
X140944840Y-106660363D01*
X140599806Y-106426126D01*
X140578246Y-106416139D01*
X140206339Y-106272177D01*
X139715482Y-106110242D01*
X139181778Y-105952076D01*
X138681332Y-105819423D01*
X138290248Y-105734024D01*
X138120594Y-105714000D01*
X137885217Y-105617889D01*
X137777998Y-105376389D01*
X137792870Y-105059752D01*
X137923764Y-104738227D01*
X138164616Y-104482064D01*
X138230429Y-104442165D01*
X138641949Y-104347853D01*
X139132913Y-104412592D01*
X139605992Y-104613043D01*
X139892734Y-104840771D01*
X140208569Y-105119660D01*
X140482337Y-105187551D01*
X140792433Y-105057063D01*
X140878403Y-104999430D01*
X141092664Y-104771955D01*
X141108310Y-104469607D01*
X141102232Y-104437409D01*
X141031142Y-104081957D01*
X141978571Y-104077010D01*
X142926000Y-104072064D01*
X142926000Y-104466281D01*
X142952220Y-104740229D01*
X143054226Y-104936984D01*
X143267037Y-105069029D01*
X143625673Y-105148848D01*
X144165154Y-105188925D01*
X144920499Y-105201743D01*
X144989750Y-105201960D01*
X146609000Y-105206000D01*
X146624875Y-106984000D01*
X146633057Y-107840276D01*
X146642825Y-108479246D01*
X146658190Y-108937593D01*
X146683161Y-109252000D01*
X146721746Y-109459148D01*
X146777957Y-109595722D01*
X146855801Y-109698402D01*
X146929860Y-109774304D01*
X147019014Y-109852034D01*
X147132715Y-109912399D01*
X147301808Y-109957645D01*
X147557140Y-109990018D01*
X147929555Y-110011765D01*
X148449901Y-110025133D01*
X149149022Y-110032366D01*
X150057764Y-110035713D01*
X150530501Y-110036531D01*
X153873783Y-110041399D01*
X154877331Y-110041399D01*
X154938546Y-109374931D01*
X153661031Y-109374931D01*
X153658959Y-109394521D01*
X153525676Y-109413888D01*
X153175715Y-109431008D01*
X152646393Y-109444997D01*
X151975028Y-109454969D01*
X151198938Y-109460041D01*
X150875529Y-109460500D01*
X148132950Y-109460500D01*
X148121930Y-108635000D01*
X148105654Y-107246278D01*
X148095334Y-105981551D01*
X148090880Y-104859283D01*
X148092200Y-103897943D01*
X148099205Y-103115995D01*
X148111803Y-102531907D01*
X148129904Y-102164145D01*
X148153416Y-102031174D01*
X148154392Y-102030999D01*
X148265833Y-102129570D01*
X148446756Y-102377815D01*
X148528589Y-102507250D01*
X148763740Y-102862950D01*
X149084281Y-103308955D01*
X149368909Y-103682000D01*
X149683352Y-104083172D01*
X149963661Y-104445211D01*
X150137713Y-104674502D01*
X150353743Y-104951034D01*
X150644139Y-105304983D01*
X150768250Y-105451894D01*
X151007563Y-105758899D01*
X151156523Y-106001456D01*
X151181000Y-106078642D01*
X151254747Y-106214987D01*
X151287615Y-106222000D01*
X151417139Y-106323196D01*
X151530590Y-106507750D01*
X151682856Y-106753631D01*
X151976420Y-107161540D01*
X152387611Y-107700370D01*
X152892760Y-108339013D01*
X153388939Y-108950021D01*
X153578056Y-109207159D01*
X153661031Y-109374931D01*
X154938546Y-109374931D01*
X154993561Y-108775965D01*
X154985121Y-108091029D01*
X153999635Y-108091029D01*
X153980553Y-108468793D01*
X153936721Y-108697745D01*
X153867139Y-108743783D01*
X153770807Y-108572809D01*
X153766388Y-108560986D01*
X153626309Y-108324586D01*
X153377580Y-108011639D01*
X153254225Y-107876703D01*
X153004975Y-107586712D01*
X152853373Y-107352916D01*
X152832001Y-107282524D01*
X152751648Y-107064938D01*
X152672514Y-106961321D01*
X152436966Y-106688492D01*
X152077520Y-106239260D01*
X151617594Y-105644135D01*
X151080608Y-104933628D01*
X150489981Y-104138250D01*
X150155378Y-103682000D01*
X149750569Y-103130745D01*
X149396304Y-102654227D01*
X149120379Y-102289374D01*
X148950590Y-102073114D01*
X148912666Y-102031000D01*
X148896187Y-102011948D01*
X146571026Y-102011948D01*
X146565290Y-102436059D01*
X146545500Y-103491500D01*
X143307000Y-103465462D01*
X142386401Y-103452964D01*
X141515801Y-103431641D01*
X140738256Y-103403285D01*
X140096822Y-103369690D01*
X139634555Y-103332649D01*
X139433500Y-103304151D01*
X138625497Y-103233157D01*
X137801268Y-103334764D01*
X137275607Y-103505544D01*
X137014192Y-103620064D01*
X136888896Y-103676130D01*
X136887238Y-103677028D01*
X136883699Y-103559727D01*
X136878403Y-103234960D01*
X136872007Y-102749252D01*
X136865167Y-102149126D01*
X136863593Y-101999250D01*
X136859579Y-101610585D01*
X136254216Y-101610585D01*
X136252243Y-102347033D01*
X136248833Y-102761250D01*
X136241058Y-103520999D01*
X136232734Y-104197962D01*
X136224499Y-104749265D01*
X136216993Y-105132038D01*
X136210892Y-105303063D01*
X136131848Y-105377876D01*
X135891918Y-105425226D01*
X135460298Y-105448341D01*
X134806183Y-105450447D01*
X134804244Y-105450429D01*
X133413488Y-105437231D01*
X133375494Y-103538894D01*
X133364584Y-102806790D01*
X133362814Y-102475500D01*
X132071499Y-102475500D01*
X132067883Y-103050523D01*
X132060585Y-103518964D01*
X132050685Y-103830684D01*
X132039973Y-103936000D01*
X131921503Y-103882866D01*
X131652493Y-103747927D01*
X131480567Y-103659094D01*
X131024945Y-103481776D01*
X130488365Y-103354141D01*
X130265592Y-103325489D01*
X129581872Y-103268790D01*
X130743633Y-102141895D01*
X131187798Y-101717155D01*
X131567375Y-101365624D01*
X131845219Y-101120881D01*
X131984186Y-101016507D01*
X131990134Y-101015000D01*
X132023221Y-101133630D01*
X132049655Y-101456101D01*
X132066642Y-101932282D01*
X132071499Y-102475500D01*
X133362814Y-102475500D01*
X133360842Y-102106772D01*
X133364173Y-101505747D01*
X133374481Y-101070623D01*
X133379163Y-100978528D01*
X133420826Y-100316500D01*
X134649163Y-100343925D01*
X135200904Y-100356237D01*
X135669350Y-100366679D01*
X135987558Y-100373757D01*
X136074191Y-100375675D01*
X136143453Y-100404784D01*
X136193706Y-100510298D01*
X136227329Y-100724749D01*
X136246705Y-101080668D01*
X136254216Y-101610585D01*
X136859579Y-101610585D01*
X136846212Y-100316500D01*
X139447602Y-100324509D01*
X142048992Y-100332519D01*
X142295130Y-100737259D01*
X142541267Y-101142000D01*
X144249366Y-101142000D01*
X144909836Y-101150672D01*
X145501701Y-101174393D01*
X145966552Y-101209714D01*
X146245979Y-101253191D01*
X146271273Y-101261309D01*
X146424729Y-101333730D01*
X146516357Y-101445085D01*
X146560380Y-101652211D01*
X146571026Y-102011948D01*
X148896187Y-102011948D01*
X148796433Y-101896626D01*
X148595526Y-101626985D01*
X148477449Y-101459500D01*
X148069713Y-100879506D01*
X147764988Y-100473822D01*
X147528435Y-100203416D01*
X147325217Y-100029258D01*
X147120497Y-99912318D01*
X147080182Y-99894061D01*
X146952867Y-99854536D01*
X146752701Y-99821308D01*
X146460394Y-99793968D01*
X146056656Y-99772106D01*
X145522197Y-99755313D01*
X144837726Y-99743179D01*
X143983954Y-99735296D01*
X142941590Y-99731253D01*
X141691344Y-99730642D01*
X140213927Y-99733053D01*
X139571729Y-99734725D01*
X132470957Y-99754724D01*
X132015229Y-100145633D01*
X131675290Y-100447301D01*
X131181827Y-100899215D01*
X130563372Y-101474501D01*
X129848455Y-102146286D01*
X129065610Y-102887696D01*
X128243367Y-103671857D01*
X127410259Y-104471895D01*
X126946898Y-104919457D01*
X126395726Y-105445344D01*
X125899727Y-105904091D01*
X125489941Y-106268153D01*
X125197409Y-106509981D01*
X125053172Y-106602028D01*
X125050750Y-106602207D01*
X124902857Y-106663514D01*
X124891845Y-106698250D01*
X124813455Y-106857023D01*
X124628452Y-107097089D01*
X124411652Y-107332721D01*
X124237872Y-107478191D01*
X124199130Y-107492000D01*
X124076612Y-107577031D01*
X123820469Y-107806083D01*
X123473132Y-108140090D01*
X123220495Y-108393004D01*
X122842877Y-108767411D01*
X122534858Y-109055417D01*
X122336326Y-109220721D01*
X122284507Y-109244839D01*
X122256206Y-109104173D01*
X122223275Y-108771634D01*
X122191402Y-108309138D01*
X122181075Y-108118680D01*
X122211161Y-106686237D01*
X122428123Y-105157466D01*
X122815613Y-103588410D01*
X123357284Y-102035108D01*
X124036788Y-100553602D01*
X124739683Y-99347797D01*
X125090358Y-98854225D01*
X125398922Y-98533498D01*
X125725849Y-98326097D01*
X125821045Y-98283507D01*
X126226089Y-98109311D01*
X126737687Y-97883222D01*
X127151953Y-97696459D01*
X127575371Y-97512872D01*
X127917468Y-97381673D01*
X128104298Y-97331218D01*
X128104453Y-97331217D01*
X128324447Y-97275909D01*
X128575000Y-97166615D01*
X128965140Y-96986719D01*
X129470657Y-96781217D01*
X129994778Y-96586721D01*
X130440728Y-96439844D01*
X130625413Y-96390903D01*
X130965671Y-96385526D01*
X131374615Y-96465809D01*
X131450913Y-96490617D01*
X131992991Y-96700523D01*
X132513654Y-96934505D01*
X132976087Y-97171152D01*
X133343471Y-97389054D01*
X133578991Y-97566801D01*
X133645829Y-97682981D01*
X133559750Y-97716990D01*
X133424516Y-97812160D01*
X133242771Y-98025940D01*
X133145688Y-98164947D01*
X133085607Y-98282191D01*
X133081044Y-98379449D01*
X133150514Y-98458495D01*
X133312536Y-98521108D01*
X133585624Y-98569061D01*
X133988295Y-98604133D01*
X134539065Y-98628098D01*
X135256451Y-98642733D01*
X136158969Y-98649814D01*
X137265135Y-98651117D01*
X138593466Y-98648419D01*
X139696566Y-98644999D01*
X140945165Y-98640753D01*
X142118526Y-98636359D01*
X143191777Y-98631938D01*
X144140046Y-98627612D01*
X144938459Y-98623502D01*
X145562145Y-98619730D01*
X145986231Y-98616418D01*
X146185844Y-98613686D01*
X146196250Y-98613249D01*
X146344727Y-98524737D01*
X146291005Y-98293033D01*
X146034010Y-97915904D01*
X145962527Y-97833686D01*
X145071321Y-97833686D01*
X144956007Y-97916434D01*
X144707135Y-97973840D01*
X144306962Y-98010456D01*
X143737746Y-98030830D01*
X142981745Y-98039513D01*
X142021214Y-98041053D01*
X140838413Y-98040001D01*
X139742834Y-98040317D01*
X138579889Y-98041291D01*
X137499039Y-98040913D01*
X136525936Y-98039284D01*
X135686232Y-98036509D01*
X135005578Y-98032689D01*
X134509625Y-98027927D01*
X134224025Y-98022327D01*
X134163000Y-98017953D01*
X134251035Y-97904502D01*
X134495144Y-97647858D01*
X134865335Y-97277734D01*
X135331615Y-96823840D01*
X135863990Y-96315886D01*
X136202055Y-95998094D01*
X136909144Y-95338036D01*
X137454183Y-94831994D01*
X137860049Y-94459862D01*
X138149615Y-94201532D01*
X138345755Y-94036895D01*
X138471345Y-93945843D01*
X138549259Y-93908270D01*
X138585406Y-93903000D01*
X138742985Y-93804681D01*
X138756704Y-93774388D01*
X138855333Y-93803645D01*
X139084767Y-93976879D01*
X139401717Y-94253116D01*
X139762894Y-94591381D01*
X140125011Y-94950700D01*
X140444777Y-95290097D01*
X140678906Y-95568597D01*
X140733609Y-95645628D01*
X140926728Y-95860828D01*
X141079595Y-95935000D01*
X141324738Y-95872441D01*
X141680507Y-95717403D01*
X142046548Y-95518841D01*
X142314770Y-95332447D01*
X142466734Y-95236106D01*
X142623018Y-95248829D01*
X142830376Y-95396309D01*
X143135562Y-95704237D01*
X143283206Y-95864603D01*
X143553263Y-96151780D01*
X143919940Y-96530646D01*
X144265521Y-96880603D01*
X144551855Y-97158298D01*
X144793345Y-97387904D01*
X144972247Y-97573971D01*
X145070821Y-97721049D01*
X145071321Y-97833686D01*
X145962527Y-97833686D01*
X145646635Y-97470358D01*
X145234498Y-96976773D01*
X145032166Y-96604874D01*
X145036013Y-96338636D01*
X145242415Y-96162035D01*
X145342184Y-96124489D01*
X145601849Y-95968584D01*
X145814350Y-95757162D01*
X146085033Y-95484388D01*
X146315760Y-95321000D01*
X146626997Y-95113861D01*
X146793123Y-94970734D01*
X146919894Y-94874622D01*
X147063666Y-94875544D01*
X147283138Y-94993880D01*
X147637007Y-95250009D01*
X147670701Y-95275416D01*
X148755780Y-96164630D01*
X149661186Y-97067691D01*
X150201172Y-97713000D01*
X150517424Y-98112969D01*
X150785520Y-98441430D01*
X150958484Y-98641134D01*
X150982724Y-98665500D01*
X151189324Y-98922438D01*
X151487984Y-99392355D01*
X151867582Y-100056132D01*
X152316993Y-100894649D01*
X152608302Y-101459500D01*
X152951550Y-102246726D01*
X153284056Y-103224699D01*
X153584957Y-104330370D01*
X153650432Y-104608953D01*
X153758832Y-105163501D01*
X153848487Y-105773835D01*
X153918395Y-106405854D01*
X153967556Y-107025459D01*
X153994970Y-107598551D01*
X153999635Y-108091029D01*
X154985121Y-108091029D01*
X154970335Y-106891240D01*
X154942984Y-106476000D01*
X154870162Y-105858314D01*
X154740724Y-105106784D01*
X154570451Y-104288586D01*
X154375119Y-103470896D01*
X154170507Y-102720890D01*
X153972392Y-102105745D01*
X153839313Y-101777000D01*
X153393609Y-100841122D01*
X153024498Y-100091122D01*
X152704883Y-99481005D01*
X152407667Y-98964775D01*
X152105756Y-98496438D01*
X151772053Y-98030000D01*
X151379461Y-97519464D01*
X151190740Y-97281134D01*
X150734093Y-96755138D01*
X150136648Y-96136491D01*
X149459968Y-95486059D01*
X148765614Y-94864709D01*
X148629441Y-94748780D01*
X148415765Y-94586714D01*
X148207376Y-94438517D01*
X146261064Y-94438517D01*
X146223798Y-94593539D01*
X146034201Y-94803965D01*
X145673522Y-95102959D01*
X145229020Y-95443490D01*
X144420540Y-96055627D01*
X143579783Y-95296813D01*
X143191201Y-94958449D01*
X142866016Y-94697964D01*
X142654355Y-94554559D01*
X142610264Y-94538650D01*
X142432614Y-94601165D01*
X142131331Y-94758590D01*
X141973500Y-94852187D01*
X141568043Y-95064107D01*
X141244001Y-95163427D01*
X141051991Y-95138716D01*
X141021000Y-95067314D01*
X140933256Y-94917142D01*
X140702648Y-94648485D01*
X140378116Y-94309376D01*
X140008599Y-93947847D01*
X139643036Y-93611929D01*
X139330366Y-93349655D01*
X139135429Y-93216679D01*
X138839885Y-93117356D01*
X138552905Y-93156656D01*
X138225063Y-93355789D01*
X137806935Y-93735965D01*
X137719000Y-93824516D01*
X137399091Y-94126705D01*
X137131937Y-94337857D01*
X136988750Y-94408448D01*
X136840927Y-94472642D01*
X136830000Y-94508145D01*
X136741969Y-94625067D01*
X136500063Y-94880196D01*
X136137561Y-95240015D01*
X135687745Y-95671010D01*
X135503895Y-95843629D01*
X134177790Y-97081967D01*
X133757645Y-96850758D01*
X133455803Y-96705147D01*
X132991731Y-96504791D01*
X132441802Y-96282031D01*
X132130319Y-96161645D01*
X131425122Y-95917535D01*
X130870098Y-95795621D01*
X130392655Y-95796071D01*
X129920200Y-95919050D01*
X129380141Y-96164726D01*
X129373810Y-96167979D01*
X129003270Y-96334027D01*
X128692648Y-96431897D01*
X128605460Y-96443000D01*
X128342034Y-96503871D01*
X128250788Y-96564012D01*
X128084630Y-96660927D01*
X127756679Y-96811795D01*
X127344350Y-96985168D01*
X126925063Y-97149594D01*
X126576233Y-97273625D01*
X126375581Y-97325792D01*
X126410972Y-97248249D01*
X126595287Y-97036141D01*
X126892857Y-96729381D01*
X127022601Y-96601750D01*
X127610941Y-96039985D01*
X128088298Y-95613871D01*
X128516953Y-95273330D01*
X128959191Y-94968283D01*
X129377135Y-94708609D01*
X129771109Y-94467245D01*
X130073014Y-94274281D01*
X130222238Y-94168546D01*
X130226000Y-94164757D01*
X130406687Y-94037795D01*
X130747717Y-93850895D01*
X131174410Y-93640451D01*
X131612088Y-93442859D01*
X131986070Y-93294514D01*
X132067500Y-93267292D01*
X132419261Y-93142448D01*
X132671046Y-93027389D01*
X132710311Y-93001766D01*
X132901098Y-92919064D01*
X133281607Y-92800948D01*
X133792619Y-92662464D01*
X134374918Y-92518657D01*
X134969288Y-92384574D01*
X135516512Y-92275259D01*
X135687000Y-92245459D01*
X136927791Y-92099448D01*
X138208134Y-92055881D01*
X139399637Y-92118664D01*
X139497000Y-92129532D01*
X141287887Y-92406583D01*
X142886169Y-92800540D01*
X144330662Y-93323624D01*
X145660184Y-93988052D01*
X145953615Y-94162040D01*
X146164753Y-94305739D01*
X146261064Y-94438517D01*
X148207376Y-94438517D01*
X148054235Y-94329611D01*
X147609284Y-94021897D01*
X147145348Y-93707997D01*
X146726859Y-93432337D01*
X146629916Y-93370163D01*
X146040764Y-93039459D01*
X145291678Y-92683122D01*
X144468986Y-92337751D01*
X143659012Y-92039945D01*
X143053000Y-91853694D01*
X142679218Y-91739081D01*
X142403254Y-91629872D01*
X142340555Y-91593990D01*
X142091248Y-91497242D01*
X141634436Y-91403961D01*
X141016615Y-91317438D01*
X140284281Y-91240962D01*
X139483928Y-91177822D01*
X138662053Y-91131308D01*
X137865150Y-91104711D01*
X137139715Y-91101319D01*
X136532243Y-91124424D01*
X136532243Y-91124424D01*
G37*
X136532243Y-91124424D02*
X136195000Y-91159165D01*
X135520144Y-91261419D01*
X135016975Y-91344966D01*
X134605417Y-91424712D01*
X134205392Y-91515563D01*
X133972500Y-91572855D01*
X133528657Y-91693676D01*
X133162154Y-91810683D01*
X132989974Y-91880754D01*
X132738735Y-91980241D01*
X132633756Y-91997999D01*
X132429894Y-92052832D01*
X132052310Y-92201201D01*
X131552349Y-92418910D01*
X130981357Y-92681764D01*
X130390681Y-92965570D01*
X129831665Y-93246131D01*
X129355655Y-93499253D01*
X129013997Y-93700740D01*
X128998103Y-93711182D01*
X127973504Y-94427796D01*
X127090048Y-95137480D01*
X126279197Y-95903454D01*
X125472414Y-96788940D01*
X124866372Y-97522500D01*
X124416807Y-98099540D01*
X124003368Y-98659265D01*
X123653783Y-99161222D01*
X123395782Y-99564954D01*
X123257097Y-99830007D01*
X123241000Y-99893749D01*
X123186507Y-100063843D01*
X123044493Y-100384627D01*
X122870176Y-100738237D01*
X122583753Y-101308030D01*
X122372386Y-101768663D01*
X122187061Y-102232616D01*
X122030173Y-102666000D01*
X121873130Y-103123534D01*
X121752434Y-103519575D01*
X121655632Y-103913929D01*
X121570272Y-104366401D01*
X121483899Y-104936796D01*
X121384062Y-105684918D01*
X121355825Y-105904500D01*
X121218359Y-107303373D01*
X121190759Y-108579320D01*
X121275381Y-109839541D01*
X121471672Y-111175000D01*
X121585113Y-111723299D01*
X121731255Y-112309953D01*
X121891580Y-112872440D01*
X122047570Y-113348242D01*
X122180704Y-113674838D01*
X122240963Y-113772150D01*
X122340379Y-113997771D01*
X122352000Y-114104336D01*
X122424152Y-114413511D01*
X122623720Y-114884152D01*
X122925372Y-115474786D01*
X123303777Y-116143941D01*
X123733604Y-116850144D01*
X124189522Y-117551921D01*
X124646198Y-118207800D01*
X125078303Y-118776309D01*
X125460505Y-119215973D01*
X125496811Y-119253077D01*
X126263043Y-120013445D01*
X126912776Y-120626824D01*
X127498330Y-121136007D01*
X128072028Y-121583783D01*
X128686189Y-122012943D01*
X129393135Y-122466277D01*
X129527500Y-122549563D01*
X130598782Y-123141709D01*
X131788823Y-123682114D01*
X132999646Y-124130776D01*
X134133278Y-124447694D01*
X134226500Y-124468033D01*
X135567330Y-124718984D01*
X136766945Y-124863300D01*
X137912096Y-124906366D01*
X139089532Y-124853569D01*
X139624000Y-124803093D01*
X140487581Y-124705697D01*
X141168460Y-124613177D01*
X141737188Y-124510923D01*
X142264315Y-124384324D01*
X142820391Y-124218769D01*
X143434000Y-124014072D01*
X144791456Y-123500454D01*
X146014909Y-122927206D01*
X147156104Y-122261070D01*
X148266779Y-121468788D01*
X149398678Y-120517101D01*
X150509370Y-119466123D01*
X150645685Y-119326812D01*
X149029938Y-119326812D01*
X149022716Y-119425749D01*
X148855518Y-119639193D01*
X148571582Y-119929273D01*
X148214150Y-120258118D01*
X147826461Y-120587858D01*
X147451755Y-120880620D01*
X147133272Y-121098534D01*
X146914252Y-121203730D01*
X146882058Y-121208000D01*
X146723806Y-121287121D01*
X146714834Y-121303250D01*
X146548247Y-121481661D01*
X146262438Y-121666193D01*
X145974638Y-121789104D01*
X145847000Y-121804711D01*
X145762414Y-121747834D01*
X145703336Y-121580774D01*
X145670513Y-121316053D01*
X144649736Y-121316053D01*
X144643358Y-121836202D01*
X144618572Y-122253170D01*
X144579908Y-122506985D01*
X144556153Y-122554384D01*
X144370486Y-122635367D01*
X144010837Y-122769078D01*
X143545616Y-122932336D01*
X143043234Y-123101958D01*
X142572100Y-123254764D01*
X142200626Y-123367573D01*
X142020789Y-123413516D01*
X141664508Y-123505675D01*
X141380677Y-123602210D01*
X141045185Y-123698610D01*
X140809177Y-123725782D01*
X140601457Y-123733257D01*
X140239930Y-123758649D01*
X139797122Y-123795407D01*
X139345556Y-123836978D01*
X138957759Y-123876811D01*
X138706255Y-123908354D01*
X138650689Y-123920775D01*
X138523547Y-123925449D01*
X138200382Y-123923125D01*
X137739055Y-123914430D01*
X137480879Y-123908056D01*
X136699369Y-123849648D01*
X135762505Y-123718303D01*
X134754279Y-123526120D01*
X134609247Y-123494388D01*
X133963880Y-123346730D01*
X133395325Y-123209043D01*
X132956101Y-123094598D01*
X132698726Y-123016666D01*
X132667557Y-123003768D01*
X132355629Y-122857897D01*
X131939650Y-122671251D01*
X131546781Y-122500359D01*
X131369000Y-122426482D01*
X130848814Y-122175552D01*
X130193571Y-121794259D01*
X129459045Y-121319873D01*
X128701008Y-120789664D01*
X127975231Y-120240902D01*
X127442828Y-119802817D01*
X126570149Y-119049859D01*
X127096325Y-118504622D01*
X127514672Y-118044998D01*
X127860948Y-117615172D01*
X128099254Y-117263382D01*
X128193693Y-117037866D01*
X128194000Y-117029637D01*
X128287320Y-116855101D01*
X128336919Y-116816662D01*
X128423483Y-116839429D01*
X128430759Y-117078377D01*
X128414586Y-117221916D01*
X128410434Y-117865014D01*
X128548219Y-118484488D01*
X128801340Y-119021543D01*
X129143201Y-119417385D01*
X129490808Y-119600808D01*
X129721868Y-119580241D01*
X129809175Y-119426280D01*
X129954707Y-119207581D01*
X130233988Y-118974164D01*
X130303136Y-118930782D01*
X130566979Y-118739043D01*
X130723754Y-118559271D01*
X130738770Y-118443329D01*
X130638750Y-118429039D01*
X130461442Y-118435128D01*
X130135295Y-118431955D01*
X130018556Y-118429039D01*
X129677401Y-118399190D01*
X129508746Y-118302522D01*
X129431667Y-118089300D01*
X129426986Y-118065473D01*
X129397180Y-117726095D01*
X129490643Y-117604687D01*
X129722321Y-117689475D01*
X129822167Y-117754154D01*
X130256675Y-118001573D01*
X130835913Y-118262780D01*
X131485921Y-118511602D01*
X132132734Y-118721862D01*
X132702392Y-118867386D01*
X133120931Y-118921999D01*
X133122102Y-118922000D01*
X133330779Y-118896536D01*
X133323183Y-118794656D01*
X133284342Y-118743960D01*
X133053474Y-118580094D01*
X132792541Y-118481195D01*
X132524304Y-118375145D01*
X132120291Y-118169551D01*
X131657157Y-117904108D01*
X131542226Y-117833735D01*
X131117213Y-117576168D01*
X130775032Y-117380577D01*
X130571906Y-117278671D01*
X130544502Y-117271000D01*
X130361214Y-117189100D01*
X130088150Y-116987027D01*
X129798715Y-116730216D01*
X129566318Y-116484103D01*
X129464367Y-116314126D01*
X129464000Y-116307828D01*
X129512185Y-116157954D01*
X129673406Y-116164504D01*
X129972659Y-116335341D01*
X130293020Y-116568600D01*
X131049452Y-117058528D01*
X131846229Y-117423778D01*
X132403507Y-117584981D01*
X132766348Y-117663331D01*
X133048274Y-117732564D01*
X133051750Y-117733539D01*
X133259704Y-117760635D01*
X133266323Y-117677030D01*
X133089097Y-117500990D01*
X132745514Y-117250785D01*
X132353250Y-117003890D01*
X131917652Y-116732019D01*
X131566186Y-116491237D01*
X131357690Y-116322587D01*
X131330940Y-116290819D01*
X131158828Y-116143135D01*
X131091503Y-116128000D01*
X130884237Y-116031570D01*
X130653545Y-115801906D01*
X130470134Y-115528445D01*
X130404712Y-115300627D01*
X130411982Y-115268480D01*
X130492381Y-115156723D01*
X130632013Y-115214773D01*
X130769065Y-115332643D01*
X131117796Y-115592114D01*
X131557515Y-115841076D01*
X131995983Y-116034102D01*
X132340961Y-116125765D01*
X132384020Y-116128000D01*
X132673593Y-116176298D01*
X133044714Y-116295050D01*
X133107079Y-116320167D01*
X133410262Y-116430727D01*
X133597110Y-116468682D01*
X133616737Y-116462596D01*
X133601899Y-116417777D01*
X133485506Y-116322054D01*
X133237885Y-116155388D01*
X132829362Y-115897738D01*
X132275034Y-115556461D01*
X131927935Y-115308564D01*
X131491929Y-114947149D01*
X131176772Y-114660794D01*
X129965109Y-114660794D01*
X129627294Y-115013397D01*
X129328437Y-115286668D01*
X129161561Y-115345851D01*
X129128312Y-115190742D01*
X129151755Y-115072780D01*
X129222111Y-114761284D01*
X129252211Y-114596530D01*
X129304961Y-114444546D01*
X128452480Y-114444546D01*
X128379433Y-114704804D01*
X128245370Y-115013901D01*
X128113872Y-115196237D01*
X128089161Y-115210446D01*
X127928925Y-115156328D01*
X127657736Y-114970371D01*
X127448746Y-114794520D01*
X126939843Y-114334757D01*
X126754646Y-114628128D01*
X126522753Y-115045584D01*
X126471297Y-115331823D01*
X126613768Y-115547057D01*
X126963657Y-115751498D01*
X127011382Y-115774044D01*
X127361857Y-115938753D01*
X127604141Y-116054567D01*
X127668737Y-116087036D01*
X127646714Y-116204246D01*
X127508452Y-116449487D01*
X127299651Y-116755105D01*
X127066010Y-117053446D01*
X126883738Y-117249169D01*
X126635580Y-117448429D01*
X126296474Y-117683148D01*
X125958965Y-117893029D01*
X125715598Y-118017773D01*
X125691904Y-118025710D01*
X125615867Y-117930736D01*
X125434541Y-117670761D01*
X125181052Y-117293758D01*
X125061161Y-117112250D01*
X124764952Y-116659572D01*
X124507337Y-116262318D01*
X124332038Y-115988023D01*
X124300623Y-115937500D01*
X124092714Y-115557100D01*
X123834024Y-115027714D01*
X123564628Y-114437549D01*
X123324604Y-113874815D01*
X123154026Y-113427719D01*
X123136948Y-113376211D01*
X123007507Y-112973923D01*
X125092754Y-112966155D01*
X125788327Y-112965747D01*
X126385498Y-112969563D01*
X126842308Y-112976995D01*
X127116798Y-112987437D01*
X127178000Y-112996320D01*
X127101541Y-113104733D01*
X126908413Y-113334583D01*
X126798780Y-113459007D01*
X126559716Y-113784664D01*
X126533075Y-114002823D01*
X126728329Y-114124860D01*
X127154948Y-114162147D01*
X127379522Y-114156470D01*
X127933043Y-114141699D01*
X128271286Y-114171029D01*
X128431887Y-114265098D01*
X128452480Y-114444546D01*
X129304961Y-114444546D01*
X129324538Y-114388141D01*
X129486556Y-114379515D01*
X129682805Y-114484493D01*
X129965109Y-114660794D01*
X131176772Y-114660794D01*
X131163503Y-114648738D01*
X130905815Y-114432490D01*
X130709466Y-114309514D01*
X130729834Y-114271528D01*
X130928139Y-114236863D01*
X131228333Y-114211589D01*
X131554368Y-114201777D01*
X131830197Y-114213496D01*
X131862494Y-114217479D01*
X131981071Y-114158437D01*
X131961730Y-114042027D01*
X131963087Y-113871232D01*
X132085241Y-113858992D01*
X132194500Y-113969000D01*
X132366916Y-114061967D01*
X132631690Y-114096000D01*
X132938390Y-114004635D01*
X133078403Y-113759784D01*
X133044950Y-113405308D01*
X133026414Y-113368856D01*
X131824659Y-113368856D01*
X131778300Y-113437885D01*
X131641102Y-113482766D01*
X131375959Y-113508682D01*
X130945765Y-113520812D01*
X130313411Y-113524338D01*
X129998098Y-113524500D01*
X129267731Y-113522174D01*
X128747058Y-113511384D01*
X128391787Y-113486408D01*
X128157629Y-113441526D01*
X128000291Y-113371017D01*
X127875483Y-113269158D01*
X127853487Y-113247486D01*
X127576474Y-112970473D01*
X129551127Y-112960029D01*
X130237789Y-112952177D01*
X130835447Y-112937376D01*
X131297655Y-112917401D01*
X131577971Y-112894024D01*
X131637890Y-112880297D01*
X131751390Y-112886078D01*
X131759438Y-112913754D01*
X131789119Y-113113897D01*
X131817286Y-113270500D01*
X131824659Y-113368856D01*
X133026414Y-113368856D01*
X132831249Y-112985070D01*
X132808403Y-112953000D01*
X132546605Y-112577901D01*
X132312463Y-112219023D01*
X132276430Y-112160052D01*
X132080195Y-111882623D01*
X131947952Y-111836272D01*
X131853668Y-112014567D01*
X131843079Y-112052999D01*
X131771704Y-112183806D01*
X131604519Y-112264906D01*
X131285518Y-112312728D01*
X130868865Y-112338749D01*
X130406148Y-112345830D01*
X130044287Y-112324287D01*
X129856746Y-112278759D01*
X129851758Y-112274509D01*
X129799939Y-112090677D01*
X129801960Y-111764601D01*
X129813784Y-111657078D01*
X129882249Y-111146637D01*
X129450875Y-111238983D01*
X129005263Y-111377680D01*
X128778428Y-111574804D01*
X128736203Y-111865653D01*
X128751378Y-111961636D01*
X128822651Y-112318000D01*
X126317576Y-112330305D01*
X125178750Y-112333782D01*
X124278686Y-112331614D01*
X123602203Y-112323519D01*
X123134121Y-112309215D01*
X122859257Y-112288420D01*
X122764896Y-112264283D01*
X122721392Y-112128360D01*
X122647734Y-111813380D01*
X122558830Y-111390257D01*
X122469588Y-110929904D01*
X122395729Y-110508250D01*
X122318557Y-110032000D01*
X125986529Y-110008555D01*
X126937806Y-110001878D01*
X127814997Y-109994583D01*
X128583476Y-109987050D01*
X129208621Y-109979655D01*
X129655805Y-109972777D01*
X129890404Y-109966793D01*
X129908500Y-109965757D01*
X130617674Y-109884187D01*
X131195878Y-109762908D01*
X131593691Y-109613763D01*
X131706945Y-109534906D01*
X131873914Y-109401941D01*
X132012328Y-109418322D01*
X132212469Y-109603313D01*
X132258896Y-109652670D01*
X132395979Y-109791213D01*
X132533542Y-109884937D01*
X132720154Y-109941422D01*
X133004385Y-109968250D01*
X133434803Y-109973003D01*
X134059978Y-109963261D01*
X134227396Y-109959948D01*
X134870458Y-109946699D01*
X135438379Y-109934175D01*
X135873772Y-109923699D01*
X136119248Y-109916592D01*
X136132798Y-109916047D01*
X136393703Y-109825404D01*
X136696205Y-109618059D01*
X136733948Y-109584308D01*
X137079800Y-109263616D01*
X137570537Y-109588370D01*
X138168291Y-109858066D01*
X138883665Y-109991965D01*
X139612715Y-109978469D01*
X140091483Y-109869689D01*
X140621114Y-109687216D01*
X140560050Y-111688388D01*
X138569349Y-111717444D01*
X137762817Y-111723782D01*
X137181999Y-111714510D01*
X136798986Y-111687864D01*
X136585869Y-111642080D01*
X136517811Y-111587750D01*
X136352368Y-111442815D01*
X136082495Y-111470915D01*
X135776845Y-111659185D01*
X135690498Y-111742776D01*
X135502297Y-111981383D01*
X135491006Y-112150134D01*
X135557455Y-112251433D01*
X135659806Y-112543749D01*
X135662757Y-113031192D01*
X135658993Y-113072797D01*
X135632867Y-113505394D01*
X135682671Y-113783895D01*
X135850532Y-113942033D01*
X136178574Y-114013542D01*
X136708923Y-114032154D01*
X136857442Y-114032500D01*
X137371719Y-114035253D01*
X137681239Y-114053761D01*
X137835246Y-114103396D01*
X137882981Y-114199530D01*
X137874520Y-114350000D01*
X137848969Y-114735372D01*
X137844787Y-115016750D01*
X137833924Y-115207568D01*
X137759990Y-115321612D01*
X137571592Y-115378253D01*
X137217337Y-115396862D01*
X136834352Y-115397600D01*
X136430786Y-115319912D01*
X136215612Y-115126973D01*
X136000310Y-114920066D01*
X135822271Y-114858000D01*
X135577844Y-114955680D01*
X135293298Y-115192903D01*
X135049615Y-115485938D01*
X134927777Y-115751057D01*
X134925000Y-115785699D01*
X134982670Y-115895876D01*
X135174614Y-115970188D01*
X135529234Y-116011600D01*
X136074936Y-116023073D01*
X136840121Y-116007573D01*
X137000495Y-116002246D01*
X137336446Y-115996109D01*
X137512142Y-116040578D01*
X137547684Y-116185993D01*
X137463176Y-116482696D01*
X137333026Y-116834997D01*
X137172272Y-117093233D01*
X136868021Y-117454173D01*
X136475953Y-117862902D01*
X136051750Y-118264504D01*
X135651094Y-118604064D01*
X135329664Y-118826667D01*
X135295094Y-118844905D01*
X134863933Y-119059996D01*
X134516883Y-118641748D01*
X134300338Y-118348664D01*
X134177001Y-118119643D01*
X134166417Y-118072245D01*
X134068376Y-117870813D01*
X134021849Y-117833754D01*
X133946954Y-117859359D01*
X133938069Y-118086756D01*
X133977098Y-118429508D01*
X134036846Y-118871536D01*
X134059879Y-119160701D01*
X134045327Y-119395599D01*
X133992320Y-119674826D01*
X133965009Y-119799067D01*
X133869324Y-120231634D01*
X134612301Y-120144311D01*
X135218686Y-120006928D01*
X135840624Y-119723413D01*
X136518703Y-119270881D01*
X137274611Y-118643323D01*
X137599982Y-118364662D01*
X137848940Y-118172510D01*
X137962246Y-118110226D01*
X138135670Y-118157720D01*
X138495411Y-118265735D01*
X138986043Y-118416837D01*
X139552141Y-118593593D01*
X140138280Y-118778571D01*
X140689034Y-118954335D01*
X141148979Y-119103454D01*
X141462689Y-119208494D01*
X141529000Y-119232104D01*
X141751112Y-119311020D01*
X142010892Y-119395424D01*
X142352758Y-119498459D01*
X142821127Y-119633265D01*
X143460415Y-119812983D01*
X144005500Y-119964792D01*
X144640500Y-120141268D01*
X144649736Y-121316053D01*
X145670513Y-121316053D01*
X145664123Y-121264517D01*
X145639134Y-120760047D01*
X145627309Y-120285656D01*
X145598117Y-118795000D01*
X146135309Y-118784356D01*
X147041410Y-118766092D01*
X147724777Y-118753709D01*
X148216652Y-118749725D01*
X148548278Y-118756657D01*
X148750898Y-118777021D01*
X148855756Y-118813334D01*
X148894093Y-118868112D01*
X148897154Y-118943873D01*
X148895025Y-119006666D01*
X148949337Y-119245088D01*
X149029938Y-119326812D01*
X150645685Y-119326812D01*
X150866455Y-119101192D01*
X151141125Y-118797680D01*
X151291743Y-118602622D01*
X151308001Y-118563917D01*
X151384749Y-118399817D01*
X151571730Y-118151235D01*
X151593751Y-118125836D01*
X151918977Y-117741218D01*
X152191350Y-117376365D01*
X152449290Y-116970248D01*
X152731220Y-116461834D01*
X153075562Y-115790095D01*
X153119836Y-115701740D01*
X153905523Y-113949616D01*
X153917936Y-113912366D01*
X152816210Y-113912366D01*
X152784005Y-114038075D01*
X152658775Y-114339236D01*
X152462616Y-114764887D01*
X152312063Y-115075042D01*
X151890526Y-115867348D01*
X151418094Y-116655442D01*
X150937509Y-117373618D01*
X150491507Y-117956166D01*
X150295482Y-118175372D01*
X150118525Y-118338470D01*
X149992433Y-118385181D01*
X149909376Y-118289410D01*
X149880846Y-118131788D01*
X148905177Y-118131788D01*
X147257757Y-118114144D01*
X145610338Y-118096500D01*
X145617221Y-117119184D01*
X145619857Y-116703797D01*
X145645975Y-116411268D01*
X145733097Y-116222468D01*
X145918748Y-116118267D01*
X146240452Y-116079536D01*
X146735733Y-116087146D01*
X147442113Y-116121966D01*
X147561500Y-116128000D01*
X148831500Y-116191500D01*
X148868339Y-117161644D01*
X148905177Y-118131788D01*
X149880846Y-118131788D01*
X149861527Y-118025062D01*
X149841056Y-117566042D01*
X149840135Y-116886254D01*
X149842190Y-116664479D01*
X149844734Y-116041558D01*
X149833304Y-115633700D01*
X149802722Y-115402123D01*
X149747815Y-115308042D01*
X149663404Y-115312675D01*
X149661864Y-115313307D01*
X149439395Y-115364429D01*
X149050924Y-115418304D01*
X148620806Y-115459815D01*
X147775111Y-115525475D01*
X147731806Y-114683471D01*
X147688500Y-113841467D01*
X150038000Y-113826686D01*
X150940048Y-113822064D01*
X151620331Y-113821740D01*
X152111064Y-113826708D01*
X152444462Y-113837961D01*
X152652739Y-113856493D01*
X152768109Y-113883297D01*
X152816210Y-113912366D01*
X153917936Y-113912366D01*
X154472286Y-112248829D01*
X154831255Y-110543053D01*
X154877331Y-110041399D01*
X153873783Y-110041399D01*
X153812000Y-110512949D01*
X153752169Y-110854597D01*
X153646952Y-111351516D01*
X153515823Y-111913397D01*
X153470695Y-112095653D01*
X153191172Y-113206806D01*
X150471586Y-113196671D01*
X147752000Y-113186537D01*
X147752000Y-112117268D01*
X147746193Y-111631956D01*
X147730706Y-111261677D01*
X147708442Y-111065024D01*
X147699029Y-111048000D01*
X147561757Y-111093773D01*
X147270132Y-111210570D01*
X147064029Y-111297486D01*
X146656110Y-111506909D01*
X146491624Y-111685211D01*
X146563241Y-111841675D01*
X146609000Y-111873500D01*
X146682688Y-112036254D01*
X146728514Y-112363105D01*
X146736000Y-112579495D01*
X146736000Y-113207000D01*
X145792718Y-113207000D01*
X145296077Y-113198820D01*
X144983346Y-113161882D01*
X144784638Y-113077586D01*
X144630069Y-112927334D01*
X144599690Y-112889500D01*
X144387577Y-112657025D01*
X144204697Y-112598603D01*
X143982086Y-112720337D01*
X143712110Y-112968069D01*
X143432471Y-113267131D01*
X143302277Y-113490417D01*
X143339849Y-113648530D01*
X143563507Y-113752069D01*
X143991571Y-113811638D01*
X144642363Y-113837836D01*
X145222388Y-113842000D01*
X145869768Y-113839562D01*
X146305760Y-113851116D01*
X146572570Y-113904958D01*
X146712406Y-114029386D01*
X146767476Y-114252698D01*
X146779986Y-114603191D01*
X146784699Y-114889438D01*
X146799500Y-115492377D01*
X146221650Y-115492688D01*
X145840831Y-115463224D01*
X145561174Y-115388666D01*
X145500699Y-115349898D01*
X145263959Y-115259032D01*
X144976259Y-115327987D01*
X144708342Y-115506050D01*
X144530949Y-115742508D01*
X144514823Y-115986647D01*
X144540948Y-116037915D01*
X144582191Y-116221027D01*
X144617805Y-116599921D01*
X144643607Y-117116383D01*
X144654698Y-117620250D01*
X144657242Y-118267578D01*
X144638511Y-118696147D01*
X144581866Y-118941154D01*
X144470671Y-119037796D01*
X144288290Y-119021271D01*
X144034230Y-118932922D01*
X143724713Y-118849340D01*
X143295043Y-118772172D01*
X143095266Y-118746287D01*
X142602830Y-118668025D01*
X142124048Y-118555929D01*
X141985031Y-118513114D01*
X141508455Y-118350500D01*
X141512079Y-116953500D01*
X141514469Y-116064500D01*
X140599132Y-116064500D01*
X140576500Y-118148270D01*
X140158404Y-118133356D01*
X139854224Y-118095538D01*
X139682578Y-118023929D01*
X139678286Y-118018089D01*
X139528359Y-117951665D01*
X139201894Y-117880891D01*
X138851143Y-117831173D01*
X138425874Y-117771568D01*
X138207588Y-117702658D01*
X138149490Y-117604543D01*
X138165405Y-117539555D01*
X138250489Y-117260776D01*
X138315798Y-116982607D01*
X138403611Y-116702239D01*
X138497404Y-116562362D01*
X138592554Y-116391622D01*
X138608000Y-116266435D01*
X138636226Y-116151869D01*
X138754597Y-116084903D01*
X139013658Y-116054635D01*
X139463951Y-116050160D01*
X139603566Y-116051681D01*
X140599132Y-116064500D01*
X141514469Y-116064500D01*
X141516891Y-115164039D01*
X141519524Y-114191250D01*
X140563800Y-114191250D01*
X140551873Y-114409839D01*
X140537153Y-114768134D01*
X140532050Y-114911933D01*
X140513000Y-115473866D01*
X139665948Y-115419546D01*
X139229242Y-115384404D01*
X138904545Y-115344887D01*
X138763912Y-115310244D01*
X138748247Y-115163697D01*
X138768777Y-114849883D01*
X138796133Y-114621216D01*
X138883336Y-113987170D01*
X139729918Y-114009835D01*
X140233106Y-114042219D01*
X140503085Y-114108606D01*
X140563800Y-114191250D01*
X141519524Y-114191250D01*
X141521095Y-113611204D01*
X141522941Y-112825669D01*
X140582273Y-112825669D01*
X140581693Y-113031239D01*
X140556676Y-113180589D01*
X140472306Y-113282681D01*
X140293670Y-113346474D01*
X139985851Y-113380928D01*
X139513936Y-113395004D01*
X138843008Y-113397660D01*
X138354000Y-113397500D01*
X136639500Y-113397500D01*
X136619462Y-112870192D01*
X136599423Y-112342884D01*
X138590848Y-112335162D01*
X140582273Y-112327439D01*
X140582273Y-112825669D01*
X141522941Y-112825669D01*
X141524229Y-112277620D01*
X141525832Y-111145913D01*
X141525442Y-110198708D01*
X141522598Y-109418631D01*
X141516839Y-108788308D01*
X141507703Y-108290364D01*
X141499756Y-108055782D01*
X140144346Y-108055782D01*
X140135586Y-108127000D01*
X139975890Y-108451239D01*
X139642412Y-108669442D01*
X139197965Y-108767971D01*
X138705364Y-108733191D01*
X138227424Y-108551464D01*
X138214682Y-108544021D01*
X137976863Y-108381596D01*
X137830926Y-108193498D01*
X137735400Y-107901131D01*
X137659580Y-107492000D01*
X137623827Y-107109353D01*
X137673464Y-106959873D01*
X136353230Y-106959873D01*
X136351087Y-107286995D01*
X136338688Y-107722888D01*
X136273853Y-108005857D01*
X136116276Y-108236686D01*
X135878991Y-108467469D01*
X135568686Y-108802394D01*
X135463013Y-109062912D01*
X135472559Y-109153554D01*
X135489511Y-109299439D01*
X135402669Y-109365551D01*
X135156086Y-109370483D01*
X134882624Y-109349599D01*
X134468094Y-109317628D01*
X128257500Y-109317628D01*
X127964364Y-109389064D01*
X127758933Y-109408047D01*
X127348332Y-109422674D01*
X126781359Y-109432759D01*
X126106808Y-109438114D01*
X125373477Y-109438553D01*
X124630161Y-109433889D01*
X123925657Y-109423936D01*
X123308762Y-109408506D01*
X123265026Y-109407043D01*
X123127664Y-109383578D01*
X123129507Y-109303581D01*
X123291542Y-109132116D01*
X123582526Y-108878485D01*
X124004589Y-108505956D01*
X124427976Y-108109860D01*
X124645239Y-107894235D01*
X124916209Y-107622394D01*
X125275495Y-107272121D01*
X125681135Y-106883039D01*
X126091167Y-106494769D01*
X126463629Y-106146933D01*
X126756560Y-105879152D01*
X126927997Y-105731047D01*
X126954258Y-105714000D01*
X126969485Y-105831131D01*
X126981043Y-106143061D01*
X126987054Y-106590597D01*
X126987500Y-106761750D01*
X126998489Y-107319870D01*
X127043853Y-107712023D01*
X127142188Y-108025751D01*
X127312092Y-108348594D01*
X127331475Y-108381000D01*
X127587852Y-108749788D01*
X127852277Y-109043768D01*
X127966475Y-109135064D01*
X128257500Y-109317628D01*
X134468094Y-109317628D01*
X134411718Y-109313280D01*
X133977009Y-109287200D01*
X133829309Y-109281268D01*
X133432117Y-109270000D01*
X133403397Y-106730493D01*
X132056035Y-106730493D01*
X132039669Y-107075811D01*
X131930565Y-107424571D01*
X131889086Y-107523421D01*
X131688532Y-107908554D01*
X131467030Y-108222784D01*
X131399104Y-108293083D01*
X130891646Y-108587509D01*
X130286240Y-108695413D01*
X129657406Y-108616743D01*
X129079665Y-108351447D01*
X129000982Y-108294765D01*
X128551726Y-107800344D01*
X128310009Y-107167115D01*
X128279011Y-106407111D01*
X128364761Y-105887140D01*
X128531783Y-105461778D01*
X128849029Y-105082599D01*
X129216663Y-104787895D01*
X129594693Y-104558284D01*
X129930554Y-104479395D01*
X130212313Y-104493991D01*
X130890971Y-104650595D01*
X131388503Y-104952149D01*
X131734316Y-105427961D01*
X131957815Y-106107339D01*
X131989511Y-106265263D01*
X132056035Y-106730493D01*
X133403397Y-106730493D01*
X133395177Y-106003740D01*
X134858534Y-106017620D01*
X135495186Y-106019982D01*
X135920783Y-106036556D01*
X136177356Y-106103086D01*
X136306934Y-106255318D01*
X136351549Y-106528999D01*
X136353230Y-106959873D01*
X137673464Y-106959873D01*
X137696007Y-106891986D01*
X137912680Y-106818727D01*
X138310406Y-106868401D01*
X138614237Y-106939114D01*
X139286647Y-107124645D01*
X139741640Y-107302356D01*
X140013439Y-107498968D01*
X140136267Y-107741203D01*
X140144346Y-108055782D01*
X141499756Y-108055782D01*
X141494730Y-107907424D01*
X141477459Y-107622115D01*
X141455427Y-107417061D01*
X141428175Y-107274889D01*
X141395240Y-107178224D01*
X141356161Y-107109692D01*
X141310478Y-107051918D01*
X141257729Y-106987527D01*
X141247149Y-106973490D01*
X140944840Y-106660363D01*
X140599806Y-106426126D01*
X140578246Y-106416139D01*
X140206339Y-106272177D01*
X139715482Y-106110242D01*
X139181778Y-105952076D01*
X138681332Y-105819423D01*
X138290248Y-105734024D01*
X138120594Y-105714000D01*
X137885217Y-105617889D01*
X137777998Y-105376389D01*
X137792870Y-105059752D01*
X137923764Y-104738227D01*
X138164616Y-104482064D01*
X138230429Y-104442165D01*
X138641949Y-104347853D01*
X139132913Y-104412592D01*
X139605992Y-104613043D01*
X139892734Y-104840771D01*
X140208569Y-105119660D01*
X140482337Y-105187551D01*
X140792433Y-105057063D01*
X140878403Y-104999430D01*
X141092664Y-104771955D01*
X141108310Y-104469607D01*
X141102232Y-104437409D01*
X141031142Y-104081957D01*
X141978571Y-104077010D01*
X142926000Y-104072064D01*
X142926000Y-104466281D01*
X142952220Y-104740229D01*
X143054226Y-104936984D01*
X143267037Y-105069029D01*
X143625673Y-105148848D01*
X144165154Y-105188925D01*
X144920499Y-105201743D01*
X144989750Y-105201960D01*
X146609000Y-105206000D01*
X146624875Y-106984000D01*
X146633057Y-107840276D01*
X146642825Y-108479246D01*
X146658190Y-108937593D01*
X146683161Y-109252000D01*
X146721746Y-109459148D01*
X146777957Y-109595722D01*
X146855801Y-109698402D01*
X146929860Y-109774304D01*
X147019014Y-109852034D01*
X147132715Y-109912399D01*
X147301808Y-109957645D01*
X147557140Y-109990018D01*
X147929555Y-110011765D01*
X148449901Y-110025133D01*
X149149022Y-110032366D01*
X150057764Y-110035713D01*
X150530501Y-110036531D01*
X153873783Y-110041399D01*
X154877331Y-110041399D01*
X154938546Y-109374931D01*
X153661031Y-109374931D01*
X153658959Y-109394521D01*
X153525676Y-109413888D01*
X153175715Y-109431008D01*
X152646393Y-109444997D01*
X151975028Y-109454969D01*
X151198938Y-109460041D01*
X150875529Y-109460500D01*
X148132950Y-109460500D01*
X148121930Y-108635000D01*
X148105654Y-107246278D01*
X148095334Y-105981551D01*
X148090880Y-104859283D01*
X148092200Y-103897943D01*
X148099205Y-103115995D01*
X148111803Y-102531907D01*
X148129904Y-102164145D01*
X148153416Y-102031174D01*
X148154392Y-102030999D01*
X148265833Y-102129570D01*
X148446756Y-102377815D01*
X148528589Y-102507250D01*
X148763740Y-102862950D01*
X149084281Y-103308955D01*
X149368909Y-103682000D01*
X149683352Y-104083172D01*
X149963661Y-104445211D01*
X150137713Y-104674502D01*
X150353743Y-104951034D01*
X150644139Y-105304983D01*
X150768250Y-105451894D01*
X151007563Y-105758899D01*
X151156523Y-106001456D01*
X151181000Y-106078642D01*
X151254747Y-106214987D01*
X151287615Y-106222000D01*
X151417139Y-106323196D01*
X151530590Y-106507750D01*
X151682856Y-106753631D01*
X151976420Y-107161540D01*
X152387611Y-107700370D01*
X152892760Y-108339013D01*
X153388939Y-108950021D01*
X153578056Y-109207159D01*
X153661031Y-109374931D01*
X154938546Y-109374931D01*
X154993561Y-108775965D01*
X154985121Y-108091029D01*
X153999635Y-108091029D01*
X153980553Y-108468793D01*
X153936721Y-108697745D01*
X153867139Y-108743783D01*
X153770807Y-108572809D01*
X153766388Y-108560986D01*
X153626309Y-108324586D01*
X153377580Y-108011639D01*
X153254225Y-107876703D01*
X153004975Y-107586712D01*
X152853373Y-107352916D01*
X152832001Y-107282524D01*
X152751648Y-107064938D01*
X152672514Y-106961321D01*
X152436966Y-106688492D01*
X152077520Y-106239260D01*
X151617594Y-105644135D01*
X151080608Y-104933628D01*
X150489981Y-104138250D01*
X150155378Y-103682000D01*
X149750569Y-103130745D01*
X149396304Y-102654227D01*
X149120379Y-102289374D01*
X148950590Y-102073114D01*
X148912666Y-102031000D01*
X148896187Y-102011948D01*
X146571026Y-102011948D01*
X146565290Y-102436059D01*
X146545500Y-103491500D01*
X143307000Y-103465462D01*
X142386401Y-103452964D01*
X141515801Y-103431641D01*
X140738256Y-103403285D01*
X140096822Y-103369690D01*
X139634555Y-103332649D01*
X139433500Y-103304151D01*
X138625497Y-103233157D01*
X137801268Y-103334764D01*
X137275607Y-103505544D01*
X137014192Y-103620064D01*
X136888896Y-103676130D01*
X136887238Y-103677028D01*
X136883699Y-103559727D01*
X136878403Y-103234960D01*
X136872007Y-102749252D01*
X136865167Y-102149126D01*
X136863593Y-101999250D01*
X136859579Y-101610585D01*
X136254216Y-101610585D01*
X136252243Y-102347033D01*
X136248833Y-102761250D01*
X136241058Y-103520999D01*
X136232734Y-104197962D01*
X136224499Y-104749265D01*
X136216993Y-105132038D01*
X136210892Y-105303063D01*
X136131848Y-105377876D01*
X135891918Y-105425226D01*
X135460298Y-105448341D01*
X134806183Y-105450447D01*
X134804244Y-105450429D01*
X133413488Y-105437231D01*
X133375494Y-103538894D01*
X133364584Y-102806790D01*
X133362814Y-102475500D01*
X132071499Y-102475500D01*
X132067883Y-103050523D01*
X132060585Y-103518964D01*
X132050685Y-103830684D01*
X132039973Y-103936000D01*
X131921503Y-103882866D01*
X131652493Y-103747927D01*
X131480567Y-103659094D01*
X131024945Y-103481776D01*
X130488365Y-103354141D01*
X130265592Y-103325489D01*
X129581872Y-103268790D01*
X130743633Y-102141895D01*
X131187798Y-101717155D01*
X131567375Y-101365624D01*
X131845219Y-101120881D01*
X131984186Y-101016507D01*
X131990134Y-101015000D01*
X132023221Y-101133630D01*
X132049655Y-101456101D01*
X132066642Y-101932282D01*
X132071499Y-102475500D01*
X133362814Y-102475500D01*
X133360842Y-102106772D01*
X133364173Y-101505747D01*
X133374481Y-101070623D01*
X133379163Y-100978528D01*
X133420826Y-100316500D01*
X134649163Y-100343925D01*
X135200904Y-100356237D01*
X135669350Y-100366679D01*
X135987558Y-100373757D01*
X136074191Y-100375675D01*
X136143453Y-100404784D01*
X136193706Y-100510298D01*
X136227329Y-100724749D01*
X136246705Y-101080668D01*
X136254216Y-101610585D01*
X136859579Y-101610585D01*
X136846212Y-100316500D01*
X139447602Y-100324509D01*
X142048992Y-100332519D01*
X142295130Y-100737259D01*
X142541267Y-101142000D01*
X144249366Y-101142000D01*
X144909836Y-101150672D01*
X145501701Y-101174393D01*
X145966552Y-101209714D01*
X146245979Y-101253191D01*
X146271273Y-101261309D01*
X146424729Y-101333730D01*
X146516357Y-101445085D01*
X146560380Y-101652211D01*
X146571026Y-102011948D01*
X148896187Y-102011948D01*
X148796433Y-101896626D01*
X148595526Y-101626985D01*
X148477449Y-101459500D01*
X148069713Y-100879506D01*
X147764988Y-100473822D01*
X147528435Y-100203416D01*
X147325217Y-100029258D01*
X147120497Y-99912318D01*
X147080182Y-99894061D01*
X146952867Y-99854536D01*
X146752701Y-99821308D01*
X146460394Y-99793968D01*
X146056656Y-99772106D01*
X145522197Y-99755313D01*
X144837726Y-99743179D01*
X143983954Y-99735296D01*
X142941590Y-99731253D01*
X141691344Y-99730642D01*
X140213927Y-99733053D01*
X139571729Y-99734725D01*
X132470957Y-99754724D01*
X132015229Y-100145633D01*
X131675290Y-100447301D01*
X131181827Y-100899215D01*
X130563372Y-101474501D01*
X129848455Y-102146286D01*
X129065610Y-102887696D01*
X128243367Y-103671857D01*
X127410259Y-104471895D01*
X126946898Y-104919457D01*
X126395726Y-105445344D01*
X125899727Y-105904091D01*
X125489941Y-106268153D01*
X125197409Y-106509981D01*
X125053172Y-106602028D01*
X125050750Y-106602207D01*
X124902857Y-106663514D01*
X124891845Y-106698250D01*
X124813455Y-106857023D01*
X124628452Y-107097089D01*
X124411652Y-107332721D01*
X124237872Y-107478191D01*
X124199130Y-107492000D01*
X124076612Y-107577031D01*
X123820469Y-107806083D01*
X123473132Y-108140090D01*
X123220495Y-108393004D01*
X122842877Y-108767411D01*
X122534858Y-109055417D01*
X122336326Y-109220721D01*
X122284507Y-109244839D01*
X122256206Y-109104173D01*
X122223275Y-108771634D01*
X122191402Y-108309138D01*
X122181075Y-108118680D01*
X122211161Y-106686237D01*
X122428123Y-105157466D01*
X122815613Y-103588410D01*
X123357284Y-102035108D01*
X124036788Y-100553602D01*
X124739683Y-99347797D01*
X125090358Y-98854225D01*
X125398922Y-98533498D01*
X125725849Y-98326097D01*
X125821045Y-98283507D01*
X126226089Y-98109311D01*
X126737687Y-97883222D01*
X127151953Y-97696459D01*
X127575371Y-97512872D01*
X127917468Y-97381673D01*
X128104298Y-97331218D01*
X128104453Y-97331217D01*
X128324447Y-97275909D01*
X128575000Y-97166615D01*
X128965140Y-96986719D01*
X129470657Y-96781217D01*
X129994778Y-96586721D01*
X130440728Y-96439844D01*
X130625413Y-96390903D01*
X130965671Y-96385526D01*
X131374615Y-96465809D01*
X131450913Y-96490617D01*
X131992991Y-96700523D01*
X132513654Y-96934505D01*
X132976087Y-97171152D01*
X133343471Y-97389054D01*
X133578991Y-97566801D01*
X133645829Y-97682981D01*
X133559750Y-97716990D01*
X133424516Y-97812160D01*
X133242771Y-98025940D01*
X133145688Y-98164947D01*
X133085607Y-98282191D01*
X133081044Y-98379449D01*
X133150514Y-98458495D01*
X133312536Y-98521108D01*
X133585624Y-98569061D01*
X133988295Y-98604133D01*
X134539065Y-98628098D01*
X135256451Y-98642733D01*
X136158969Y-98649814D01*
X137265135Y-98651117D01*
X138593466Y-98648419D01*
X139696566Y-98644999D01*
X140945165Y-98640753D01*
X142118526Y-98636359D01*
X143191777Y-98631938D01*
X144140046Y-98627612D01*
X144938459Y-98623502D01*
X145562145Y-98619730D01*
X145986231Y-98616418D01*
X146185844Y-98613686D01*
X146196250Y-98613249D01*
X146344727Y-98524737D01*
X146291005Y-98293033D01*
X146034010Y-97915904D01*
X145962527Y-97833686D01*
X145071321Y-97833686D01*
X144956007Y-97916434D01*
X144707135Y-97973840D01*
X144306962Y-98010456D01*
X143737746Y-98030830D01*
X142981745Y-98039513D01*
X142021214Y-98041053D01*
X140838413Y-98040001D01*
X139742834Y-98040317D01*
X138579889Y-98041291D01*
X137499039Y-98040913D01*
X136525936Y-98039284D01*
X135686232Y-98036509D01*
X135005578Y-98032689D01*
X134509625Y-98027927D01*
X134224025Y-98022327D01*
X134163000Y-98017953D01*
X134251035Y-97904502D01*
X134495144Y-97647858D01*
X134865335Y-97277734D01*
X135331615Y-96823840D01*
X135863990Y-96315886D01*
X136202055Y-95998094D01*
X136909144Y-95338036D01*
X137454183Y-94831994D01*
X137860049Y-94459862D01*
X138149615Y-94201532D01*
X138345755Y-94036895D01*
X138471345Y-93945843D01*
X138549259Y-93908270D01*
X138585406Y-93903000D01*
X138742985Y-93804681D01*
X138756704Y-93774388D01*
X138855333Y-93803645D01*
X139084767Y-93976879D01*
X139401717Y-94253116D01*
X139762894Y-94591381D01*
X140125011Y-94950700D01*
X140444777Y-95290097D01*
X140678906Y-95568597D01*
X140733609Y-95645628D01*
X140926728Y-95860828D01*
X141079595Y-95935000D01*
X141324738Y-95872441D01*
X141680507Y-95717403D01*
X142046548Y-95518841D01*
X142314770Y-95332447D01*
X142466734Y-95236106D01*
X142623018Y-95248829D01*
X142830376Y-95396309D01*
X143135562Y-95704237D01*
X143283206Y-95864603D01*
X143553263Y-96151780D01*
X143919940Y-96530646D01*
X144265521Y-96880603D01*
X144551855Y-97158298D01*
X144793345Y-97387904D01*
X144972247Y-97573971D01*
X145070821Y-97721049D01*
X145071321Y-97833686D01*
X145962527Y-97833686D01*
X145646635Y-97470358D01*
X145234498Y-96976773D01*
X145032166Y-96604874D01*
X145036013Y-96338636D01*
X145242415Y-96162035D01*
X145342184Y-96124489D01*
X145601849Y-95968584D01*
X145814350Y-95757162D01*
X146085033Y-95484388D01*
X146315760Y-95321000D01*
X146626997Y-95113861D01*
X146793123Y-94970734D01*
X146919894Y-94874622D01*
X147063666Y-94875544D01*
X147283138Y-94993880D01*
X147637007Y-95250009D01*
X147670701Y-95275416D01*
X148755780Y-96164630D01*
X149661186Y-97067691D01*
X150201172Y-97713000D01*
X150517424Y-98112969D01*
X150785520Y-98441430D01*
X150958484Y-98641134D01*
X150982724Y-98665500D01*
X151189324Y-98922438D01*
X151487984Y-99392355D01*
X151867582Y-100056132D01*
X152316993Y-100894649D01*
X152608302Y-101459500D01*
X152951550Y-102246726D01*
X153284056Y-103224699D01*
X153584957Y-104330370D01*
X153650432Y-104608953D01*
X153758832Y-105163501D01*
X153848487Y-105773835D01*
X153918395Y-106405854D01*
X153967556Y-107025459D01*
X153994970Y-107598551D01*
X153999635Y-108091029D01*
X154985121Y-108091029D01*
X154970335Y-106891240D01*
X154942984Y-106476000D01*
X154870162Y-105858314D01*
X154740724Y-105106784D01*
X154570451Y-104288586D01*
X154375119Y-103470896D01*
X154170507Y-102720890D01*
X153972392Y-102105745D01*
X153839313Y-101777000D01*
X153393609Y-100841122D01*
X153024498Y-100091122D01*
X152704883Y-99481005D01*
X152407667Y-98964775D01*
X152105756Y-98496438D01*
X151772053Y-98030000D01*
X151379461Y-97519464D01*
X151190740Y-97281134D01*
X150734093Y-96755138D01*
X150136648Y-96136491D01*
X149459968Y-95486059D01*
X148765614Y-94864709D01*
X148629441Y-94748780D01*
X148415765Y-94586714D01*
X148207376Y-94438517D01*
X146261064Y-94438517D01*
X146223798Y-94593539D01*
X146034201Y-94803965D01*
X145673522Y-95102959D01*
X145229020Y-95443490D01*
X144420540Y-96055627D01*
X143579783Y-95296813D01*
X143191201Y-94958449D01*
X142866016Y-94697964D01*
X142654355Y-94554559D01*
X142610264Y-94538650D01*
X142432614Y-94601165D01*
X142131331Y-94758590D01*
X141973500Y-94852187D01*
X141568043Y-95064107D01*
X141244001Y-95163427D01*
X141051991Y-95138716D01*
X141021000Y-95067314D01*
X140933256Y-94917142D01*
X140702648Y-94648485D01*
X140378116Y-94309376D01*
X140008599Y-93947847D01*
X139643036Y-93611929D01*
X139330366Y-93349655D01*
X139135429Y-93216679D01*
X138839885Y-93117356D01*
X138552905Y-93156656D01*
X138225063Y-93355789D01*
X137806935Y-93735965D01*
X137719000Y-93824516D01*
X137399091Y-94126705D01*
X137131937Y-94337857D01*
X136988750Y-94408448D01*
X136840927Y-94472642D01*
X136830000Y-94508145D01*
X136741969Y-94625067D01*
X136500063Y-94880196D01*
X136137561Y-95240015D01*
X135687745Y-95671010D01*
X135503895Y-95843629D01*
X134177790Y-97081967D01*
X133757645Y-96850758D01*
X133455803Y-96705147D01*
X132991731Y-96504791D01*
X132441802Y-96282031D01*
X132130319Y-96161645D01*
X131425122Y-95917535D01*
X130870098Y-95795621D01*
X130392655Y-95796071D01*
X129920200Y-95919050D01*
X129380141Y-96164726D01*
X129373810Y-96167979D01*
X129003270Y-96334027D01*
X128692648Y-96431897D01*
X128605460Y-96443000D01*
X128342034Y-96503871D01*
X128250788Y-96564012D01*
X128084630Y-96660927D01*
X127756679Y-96811795D01*
X127344350Y-96985168D01*
X126925063Y-97149594D01*
X126576233Y-97273625D01*
X126375581Y-97325792D01*
X126410972Y-97248249D01*
X126595287Y-97036141D01*
X126892857Y-96729381D01*
X127022601Y-96601750D01*
X127610941Y-96039985D01*
X128088298Y-95613871D01*
X128516953Y-95273330D01*
X128959191Y-94968283D01*
X129377135Y-94708609D01*
X129771109Y-94467245D01*
X130073014Y-94274281D01*
X130222238Y-94168546D01*
X130226000Y-94164757D01*
X130406687Y-94037795D01*
X130747717Y-93850895D01*
X131174410Y-93640451D01*
X131612088Y-93442859D01*
X131986070Y-93294514D01*
X132067500Y-93267292D01*
X132419261Y-93142448D01*
X132671046Y-93027389D01*
X132710311Y-93001766D01*
X132901098Y-92919064D01*
X133281607Y-92800948D01*
X133792619Y-92662464D01*
X134374918Y-92518657D01*
X134969288Y-92384574D01*
X135516512Y-92275259D01*
X135687000Y-92245459D01*
X136927791Y-92099448D01*
X138208134Y-92055881D01*
X139399637Y-92118664D01*
X139497000Y-92129532D01*
X141287887Y-92406583D01*
X142886169Y-92800540D01*
X144330662Y-93323624D01*
X145660184Y-93988052D01*
X145953615Y-94162040D01*
X146164753Y-94305739D01*
X146261064Y-94438517D01*
X148207376Y-94438517D01*
X148054235Y-94329611D01*
X147609284Y-94021897D01*
X147145348Y-93707997D01*
X146726859Y-93432337D01*
X146629916Y-93370163D01*
X146040764Y-93039459D01*
X145291678Y-92683122D01*
X144468986Y-92337751D01*
X143659012Y-92039945D01*
X143053000Y-91853694D01*
X142679218Y-91739081D01*
X142403254Y-91629872D01*
X142340555Y-91593990D01*
X142091248Y-91497242D01*
X141634436Y-91403961D01*
X141016615Y-91317438D01*
X140284281Y-91240962D01*
X139483928Y-91177822D01*
X138662053Y-91131308D01*
X137865150Y-91104711D01*
X137139715Y-91101319D01*
X136532243Y-91124424D01*
G36*
X133528000Y-118985500D02*
X133591500Y-119049000D01*
X133655000Y-118985500D01*
X133591500Y-118922000D01*
X133528000Y-118985500D01*
X133528000Y-118985500D01*
G37*
X133528000Y-118985500D02*
X133591500Y-119049000D01*
X133655000Y-118985500D01*
X133591500Y-118922000D01*
X133528000Y-118985500D01*
M02*
