G04 #@! TF.FileFunction,Copper,L2,Bot,Signal*
%FSLAX46Y46*%
G04 Gerber Fmt 4.6, Leading zero omitted, Abs format (unit mm)*
G04 Created by KiCad (PCBNEW 4.0.4-stable) date 2017 January 13, Friday 02:46:46*
%MOMM*%
%LPD*%
G01*
G04 APERTURE LIST*
%ADD10C,0.100000*%
%ADD11R,2.032000X1.727200*%
%ADD12O,2.032000X1.727200*%
%ADD13R,1.727200X1.727200*%
%ADD14O,1.727200X1.727200*%
%ADD15O,1.100000X1.500000*%
%ADD16O,1.200000X1.700000*%
%ADD17C,3.500000*%
%ADD18C,0.600000*%
%ADD19C,0.250000*%
%ADD20C,0.254000*%
G04 APERTURE END LIST*
D10*
D11*
X114706400Y-89611200D03*
D12*
X114706400Y-92151200D03*
X114706400Y-94691200D03*
X114706400Y-97231200D03*
X114706400Y-99771200D03*
X114706400Y-102311200D03*
X114706400Y-104851200D03*
X114706400Y-107391200D03*
D11*
X114706400Y-110794800D03*
D12*
X114706400Y-113334800D03*
X114706400Y-115874800D03*
X114706400Y-118414800D03*
X114706400Y-120954800D03*
X114706400Y-123494800D03*
D13*
X151434800Y-85242400D03*
D14*
X151434800Y-87782400D03*
X153974800Y-85242400D03*
X153974800Y-87782400D03*
X156514800Y-85242400D03*
X156514800Y-87782400D03*
D11*
X161290000Y-79044800D03*
D12*
X161290000Y-81584800D03*
X161290000Y-84124800D03*
X161290000Y-86664800D03*
X161290000Y-89204800D03*
X161290000Y-91744800D03*
X161290000Y-94284800D03*
X161290000Y-96824800D03*
X161290000Y-99364800D03*
X161290000Y-101904800D03*
D11*
X161290000Y-105613200D03*
D12*
X161290000Y-108153200D03*
X161290000Y-110693200D03*
X161290000Y-113233200D03*
X161290000Y-115773200D03*
X161290000Y-118313200D03*
X161290000Y-120853200D03*
X161290000Y-123393200D03*
D15*
X126072200Y-80974600D03*
X121222200Y-80974600D03*
D16*
X126372200Y-77974600D03*
X120922200Y-77974600D03*
D17*
X115773200Y-77774800D03*
X160000000Y-137000000D03*
X116000000Y-137000000D03*
D18*
X148488400Y-86512400D03*
X148386800Y-84531200D03*
X141274800Y-85242400D03*
X159156400Y-94335600D03*
X126441200Y-85242400D03*
X128828800Y-81381600D03*
X137972800Y-96977200D03*
X145389600Y-97485200D03*
X145084800Y-81127600D03*
X157835600Y-82397600D03*
X144932400Y-75692000D03*
X132892800Y-91287600D03*
X144932400Y-84988400D03*
X117398800Y-95910400D03*
X133553200Y-79603600D03*
X135686800Y-96774000D03*
X159448800Y-111900000D03*
X136855200Y-96824800D03*
X148200000Y-100900000D03*
X148400000Y-104700000D03*
X148400000Y-104700000D03*
X143200000Y-128100000D03*
X147777200Y-97840800D03*
X131300000Y-128300000D03*
X148488400Y-98501200D03*
X153700000Y-99600000D03*
X153700000Y-103900000D03*
X153700000Y-115000000D03*
X153700000Y-115000000D03*
X145491200Y-92202000D03*
X151899999Y-98600001D03*
X143000000Y-116000000D03*
X143000000Y-116000000D03*
X146625001Y-105325001D03*
X145491200Y-91389200D03*
X150900000Y-97266600D03*
X149800000Y-103800000D03*
X132100000Y-115400000D03*
X132100000Y-115400000D03*
X145491200Y-90525600D03*
X146354800Y-89732000D03*
X127762000Y-98856800D03*
X130403600Y-84937600D03*
X130657600Y-85750400D03*
X130606800Y-88138000D03*
X130556000Y-89052400D03*
X132080000Y-89732000D03*
X155752800Y-79908400D03*
X129895600Y-89712800D03*
X131318000Y-90525600D03*
X156159200Y-78892400D03*
X130708400Y-90525600D03*
X121615200Y-98145600D03*
X157600000Y-121900000D03*
X157600000Y-121900000D03*
X130400000Y-97200000D03*
X130400000Y-95200000D03*
X158500000Y-119000000D03*
X132200000Y-98200000D03*
X132200000Y-95200000D03*
X147800000Y-103000000D03*
X133096000Y-97536000D03*
X133197600Y-95504000D03*
X145491200Y-88950800D03*
X145288000Y-88138000D03*
X159308800Y-87477600D03*
X140157200Y-84582000D03*
X141681200Y-83667600D03*
D19*
X149148800Y-87782400D02*
X151434800Y-87782400D01*
X148488400Y-87122000D02*
X149148800Y-87782400D01*
X148488400Y-86512400D02*
X148488400Y-87122000D01*
X147929600Y-84074000D02*
X148386800Y-84531200D01*
X142595600Y-84074000D02*
X147929600Y-84074000D01*
X142138400Y-84531200D02*
X142595600Y-84074000D01*
X141986000Y-84531200D02*
X142138400Y-84531200D01*
X141274800Y-85242400D02*
X141986000Y-84531200D01*
X151434800Y-87782400D02*
X151536400Y-87782400D01*
X151536400Y-87782400D02*
X154178000Y-90424000D01*
X154178000Y-90424000D02*
X157327600Y-90424000D01*
X157327600Y-90424000D02*
X159054800Y-92151200D01*
X159054800Y-92151200D02*
X159054800Y-94234000D01*
X159054800Y-94234000D02*
X159156400Y-94335600D01*
X126441200Y-85242400D02*
X126415800Y-85217000D01*
X126415800Y-85217000D02*
X126441200Y-85242400D01*
X126441200Y-85242400D02*
X126441200Y-85191600D01*
X128828800Y-82346800D02*
X128828800Y-81381600D01*
X116078000Y-92151200D02*
X117195600Y-91033600D01*
X117195600Y-91033600D02*
X117195600Y-87528400D01*
X117195600Y-87528400D02*
X118008400Y-86715600D01*
X118008400Y-86715600D02*
X124917200Y-86715600D01*
X124917200Y-86715600D02*
X126441200Y-85191600D01*
X126441200Y-85191600D02*
X128828800Y-82804000D01*
X128828800Y-82804000D02*
X128828800Y-82346800D01*
X114706400Y-92151200D02*
X116078000Y-92151200D01*
X114706400Y-92151200D02*
X115011200Y-92151200D01*
X115011200Y-92151200D02*
X116636800Y-93776800D01*
X116636800Y-93776800D02*
X116636800Y-97840800D01*
X116636800Y-97840800D02*
X114706400Y-99771200D01*
X144576800Y-96672400D02*
X145389600Y-97485200D01*
X138277600Y-96672400D02*
X144576800Y-96672400D01*
X138277600Y-96672400D02*
X137972800Y-96977200D01*
X144932400Y-80975200D02*
X144932400Y-75692000D01*
X145084800Y-81127600D02*
X144932400Y-80975200D01*
X145034000Y-75793600D02*
X144932400Y-75692000D01*
X154279600Y-75793600D02*
X145034000Y-75793600D01*
X156921200Y-78435200D02*
X154279600Y-75793600D01*
X159512000Y-78435200D02*
X156921200Y-78435200D01*
X159512000Y-80721200D02*
X159512000Y-78435200D01*
X159512000Y-80721200D02*
X157835600Y-82397600D01*
X114706400Y-102311200D02*
X114706400Y-104851200D01*
X132849198Y-91243998D02*
X132892800Y-91287600D01*
X132849198Y-86410800D02*
X132849198Y-91243998D01*
X134271598Y-84988400D02*
X132849198Y-86410800D01*
X138582400Y-84988400D02*
X134271598Y-84988400D01*
X139496800Y-85902800D02*
X138582400Y-84988400D01*
X142341600Y-85902800D02*
X139496800Y-85902800D01*
X143256000Y-84988400D02*
X142341600Y-85902800D01*
X144932400Y-84988400D02*
X143256000Y-84988400D01*
X118059200Y-95250000D02*
X117398800Y-95910400D01*
X118059200Y-90119200D02*
X118059200Y-95250000D01*
X120650000Y-87528400D02*
X118059200Y-90119200D01*
X125628400Y-87528400D02*
X120650000Y-87528400D01*
X133553200Y-79603600D02*
X125628400Y-87528400D01*
X135686800Y-96774000D02*
X135585200Y-96875600D01*
X135585200Y-101955600D02*
X136398000Y-102768400D01*
X135585200Y-96875600D02*
X135585200Y-101955600D01*
X136398000Y-102768400D02*
X146680800Y-102768400D01*
X146680800Y-102768400D02*
X147349200Y-102100000D01*
X147349200Y-102100000D02*
X156760800Y-102100000D01*
X156760800Y-102100000D02*
X157530800Y-102870000D01*
X157530800Y-102870000D02*
X157530800Y-108051600D01*
X160782000Y-115773200D02*
X161290000Y-115773200D01*
X157530800Y-108051600D02*
X158457201Y-108978001D01*
X158457201Y-108978001D02*
X158457201Y-113448401D01*
X158457201Y-113448401D02*
X160782000Y-115773200D01*
X159348800Y-111800000D02*
X158953200Y-111404400D01*
X160782000Y-113233200D02*
X159348800Y-111800000D01*
X159348800Y-111800000D02*
X159448800Y-111900000D01*
X161290000Y-113233200D02*
X160782000Y-113233200D01*
X158953200Y-108712000D02*
X157995198Y-107753998D01*
X158953200Y-111404400D02*
X158953200Y-108712000D01*
X157995198Y-107753998D02*
X157995198Y-102192808D01*
X157402390Y-101600000D02*
X146710400Y-101600000D01*
X157995198Y-102192808D02*
X157402390Y-101600000D01*
X146710400Y-101600000D02*
X146050000Y-102260400D01*
X146050000Y-102260400D02*
X136702800Y-102260400D01*
X136702800Y-102260400D02*
X136296400Y-101854000D01*
X136296400Y-101854000D02*
X136296400Y-97383600D01*
X136296400Y-97383600D02*
X136855200Y-96824800D01*
X161290000Y-113233200D02*
X160883600Y-113233200D01*
X157300000Y-100900000D02*
X148200000Y-100900000D01*
X148200000Y-100900000D02*
X147726400Y-100426400D01*
X157500000Y-101100000D02*
X157300000Y-100900000D01*
X157538800Y-101100000D02*
X157500000Y-101100000D01*
X144500000Y-108600000D02*
X148400000Y-104700000D01*
X144500000Y-124300000D02*
X144500000Y-108600000D01*
X143200000Y-125600000D02*
X144500000Y-124300000D01*
X143200000Y-125700000D02*
X143200000Y-125600000D01*
X143200000Y-128100000D02*
X143200000Y-125700000D01*
X147777200Y-97840800D02*
X147726400Y-97891600D01*
X147726400Y-97891600D02*
X147726400Y-100426400D01*
X157538800Y-101100000D02*
X158089600Y-101650800D01*
X158096790Y-101643610D02*
X158089600Y-101650800D01*
X161290000Y-110693200D02*
X159766000Y-109169200D01*
X159766000Y-108864400D02*
X159766000Y-109169200D01*
X158445200Y-107543600D02*
X159766000Y-108864400D01*
X158445200Y-102006400D02*
X158445200Y-107543600D01*
X158089600Y-101650800D02*
X158445200Y-102006400D01*
X133036010Y-93000000D02*
X143500000Y-93000000D01*
X131300000Y-128300000D02*
X131300000Y-94736010D01*
X131300000Y-94736010D02*
X133036010Y-93000000D01*
X158546800Y-101193600D02*
X158800000Y-101446800D01*
X158800000Y-101446800D02*
X158953200Y-101600000D01*
X149200000Y-100300000D02*
X157653200Y-100300000D01*
X157653200Y-100300000D02*
X158800000Y-101446800D01*
X148500000Y-99600000D02*
X149200000Y-100300000D01*
X148500000Y-98937064D02*
X148500000Y-99600000D01*
X148488400Y-98501200D02*
X148488400Y-98925464D01*
X148488400Y-98925464D02*
X148500000Y-98937064D01*
X160070800Y-108153200D02*
X161290000Y-108153200D01*
X158953200Y-107035600D02*
X160070800Y-108153200D01*
X158953200Y-101600000D02*
X158953200Y-107035600D01*
X153600000Y-99600000D02*
X157969200Y-99600000D01*
X150000000Y-99600000D02*
X153600000Y-99600000D01*
X153600000Y-99600000D02*
X153700000Y-99600000D01*
X145491200Y-92202000D02*
X145948400Y-92202000D01*
X145948400Y-92202000D02*
X146202400Y-92456000D01*
X159512000Y-101142800D02*
X159512000Y-104444800D01*
X146202400Y-92456000D02*
X146202400Y-95250000D01*
X146202400Y-95250000D02*
X149402800Y-98450400D01*
X149402800Y-98450400D02*
X149402800Y-99002800D01*
X159512000Y-104444800D02*
X160680400Y-105613200D01*
X149402800Y-99002800D02*
X150000000Y-99600000D01*
X160680400Y-105613200D02*
X161290000Y-105613200D01*
X157969200Y-99600000D02*
X159512000Y-101142800D01*
X153700000Y-115000000D02*
X153700000Y-103900000D01*
X159100000Y-98600000D02*
X159100000Y-98648000D01*
X159100000Y-98648000D02*
X159512000Y-99060000D01*
X150300000Y-98600000D02*
X159100000Y-98600000D01*
X149606000Y-97906000D02*
X150300000Y-98600000D01*
X143000000Y-108950002D02*
X143000000Y-116000000D01*
X146625001Y-105325001D02*
X143000000Y-108950002D01*
X149606000Y-97891600D02*
X149606000Y-97906000D01*
X159512000Y-100126800D02*
X161290000Y-101904800D01*
X159512000Y-99060000D02*
X159512000Y-100126800D01*
X146710400Y-94996000D02*
X149606000Y-97891600D01*
X146710400Y-91490800D02*
X146710400Y-94996000D01*
X146558000Y-91338400D02*
X146710400Y-91490800D01*
X145542000Y-91338400D02*
X146558000Y-91338400D01*
X145491200Y-91389200D02*
X145542000Y-91338400D01*
X149500000Y-103800000D02*
X149800000Y-103800000D01*
X132100000Y-115400000D02*
X132100000Y-105100000D01*
X133400000Y-103800000D02*
X149500000Y-103800000D01*
X132100000Y-105100000D02*
X133400000Y-103800000D01*
X145491200Y-90525600D02*
X146812000Y-90525600D01*
X146812000Y-90525600D02*
X147320000Y-91033600D01*
X148750810Y-96400000D02*
X150000000Y-96400000D01*
X147320000Y-91033600D02*
X147320000Y-94969190D01*
X159258000Y-97332800D02*
X161290000Y-99364800D01*
X147320000Y-94969190D02*
X148750810Y-96400000D01*
X150000000Y-96400000D02*
X150932800Y-97332800D01*
X150932800Y-97332800D02*
X159258000Y-97332800D01*
X128625600Y-97993200D02*
X127762000Y-98856800D01*
X128625600Y-93980000D02*
X128625600Y-97993200D01*
X130657600Y-91948000D02*
X128625600Y-93980000D01*
X133451600Y-91948000D02*
X130657600Y-91948000D01*
X135636000Y-89763600D02*
X133451600Y-91948000D01*
X146323200Y-89763600D02*
X135636000Y-89763600D01*
X146323200Y-89763600D02*
X146354800Y-89732000D01*
X116586000Y-108915200D02*
X114706400Y-110794800D01*
X116586000Y-98755200D02*
X116586000Y-108915200D01*
X130403600Y-84937600D02*
X116586000Y-98755200D01*
X116586000Y-112014000D02*
X115265200Y-113334800D01*
X116586000Y-110083600D02*
X116586000Y-112014000D01*
X117043200Y-109626400D02*
X116586000Y-110083600D01*
X117043200Y-99364800D02*
X117043200Y-109626400D01*
X130657600Y-85750400D02*
X117043200Y-99364800D01*
X115265200Y-113334800D02*
X114706400Y-113334800D01*
X114706400Y-115874800D02*
X115519200Y-115874800D01*
X115519200Y-115874800D02*
X117195600Y-114198400D01*
X129133600Y-88138000D02*
X130606800Y-88138000D01*
X117493202Y-99778398D02*
X129133600Y-88138000D01*
X117493202Y-110090798D02*
X117493202Y-99778398D01*
X117195600Y-110388400D02*
X117493202Y-110090798D01*
X117195600Y-114198400D02*
X117195600Y-110388400D01*
X115671600Y-115874800D02*
X114706400Y-115874800D01*
X117652800Y-115468400D02*
X114706400Y-118414800D01*
X117652800Y-110947200D02*
X117652800Y-115468400D01*
X117957600Y-110642400D02*
X117652800Y-110947200D01*
X117957600Y-100076000D02*
X117957600Y-110642400D01*
X129082800Y-88950800D02*
X117957600Y-100076000D01*
X130454400Y-88950800D02*
X129082800Y-88950800D01*
X130556000Y-89052400D02*
X130454400Y-88950800D01*
X155752800Y-79908400D02*
X154736800Y-80924400D01*
X147472400Y-80924400D02*
X154736800Y-80924400D01*
X145694400Y-82702400D02*
X147472400Y-80924400D01*
X140817600Y-82702400D02*
X145694400Y-82702400D01*
X139141200Y-84378800D02*
X140817600Y-82702400D01*
X133756400Y-84378800D02*
X139141200Y-84378800D01*
X132080000Y-86055200D02*
X133756400Y-84378800D01*
X132080000Y-86055200D02*
X132080000Y-89732000D01*
X129895600Y-89712800D02*
X129082800Y-89712800D01*
X129082800Y-89712800D02*
X118414800Y-100380800D01*
X118414800Y-100380800D02*
X118414800Y-117652800D01*
X118414800Y-117652800D02*
X115112800Y-120954800D01*
X115112800Y-120954800D02*
X114706400Y-120954800D01*
X131318000Y-85852000D02*
X131318000Y-90525600D01*
X133400800Y-83769200D02*
X131318000Y-85852000D01*
X138785600Y-83769200D02*
X133400800Y-83769200D01*
X140563600Y-81991200D02*
X138785600Y-83769200D01*
X145389600Y-81991200D02*
X140563600Y-81991200D01*
X148488400Y-78892400D02*
X145389600Y-81991200D01*
X156159200Y-78892400D02*
X148488400Y-78892400D01*
X129235200Y-90525600D02*
X130708400Y-90525600D01*
X121615200Y-98145600D02*
X129235200Y-90525600D01*
X157600000Y-122400000D02*
X158593200Y-123393200D01*
X158593200Y-123393200D02*
X161290000Y-123393200D01*
X157600000Y-121900000D02*
X157600000Y-122400000D01*
X130400000Y-95200000D02*
X130400000Y-97200000D01*
X158500000Y-120100000D02*
X159253200Y-120853200D01*
X159253200Y-120853200D02*
X161290000Y-120853200D01*
X158500000Y-119000000D02*
X158500000Y-120100000D01*
X132200000Y-95200000D02*
X132200000Y-98200000D01*
X151723200Y-103000000D02*
X147800000Y-103000000D01*
X159562800Y-116586000D02*
X161290000Y-118313200D01*
X159562800Y-116078000D02*
X159562800Y-116586000D01*
X157886400Y-114401600D02*
X159562800Y-116078000D01*
X157886400Y-109423200D02*
X157886400Y-114401600D01*
X156870400Y-108407200D02*
X157886400Y-109423200D01*
X156870400Y-103225600D02*
X156870400Y-108407200D01*
X156616400Y-102971600D02*
X156870400Y-103225600D01*
X151723200Y-103000000D02*
X156600000Y-103000000D01*
X133096000Y-95605600D02*
X133096000Y-97536000D01*
X133197600Y-95504000D02*
X133096000Y-95605600D01*
X153974800Y-87782400D02*
X153060400Y-87782400D01*
X146050000Y-88392000D02*
X145491200Y-88950800D01*
X146050000Y-86410800D02*
X146050000Y-88392000D01*
X146761200Y-85699600D02*
X146050000Y-86410800D01*
X149402800Y-85699600D02*
X146761200Y-85699600D01*
X149555200Y-85852000D02*
X149402800Y-85699600D01*
X149555200Y-86106000D02*
X149555200Y-85852000D01*
X150012400Y-86563200D02*
X149555200Y-86106000D01*
X152196800Y-86563200D02*
X150012400Y-86563200D01*
X152755600Y-87122000D02*
X152196800Y-86563200D01*
X152755600Y-87477600D02*
X152755600Y-87122000D01*
X153060400Y-87782400D02*
X152755600Y-87477600D01*
X153974800Y-87782400D02*
X154432000Y-87782400D01*
X154432000Y-87782400D02*
X156362400Y-89712800D01*
X159715200Y-92710000D02*
X161290000Y-94284800D01*
X159715200Y-91948000D02*
X159715200Y-92710000D01*
X157480000Y-89712800D02*
X159715200Y-91948000D01*
X156362400Y-89712800D02*
X157480000Y-89712800D01*
X151434800Y-85242400D02*
X152247600Y-85242400D01*
X152247600Y-85242400D02*
X152704800Y-85699600D01*
X159715200Y-90170000D02*
X161290000Y-91744800D01*
X159715200Y-89966800D02*
X159715200Y-90170000D01*
X158648400Y-88900000D02*
X159715200Y-89966800D01*
X158648400Y-87223600D02*
X158648400Y-88900000D01*
X157988000Y-86563200D02*
X158648400Y-87223600D01*
X152857200Y-86563200D02*
X157988000Y-86563200D01*
X152704800Y-86410800D02*
X152857200Y-86563200D01*
X152704800Y-85699600D02*
X152704800Y-86410800D01*
X161290000Y-91744800D02*
X160629600Y-91744800D01*
X146558000Y-85242400D02*
X151434800Y-85242400D01*
X145592800Y-86207600D02*
X146558000Y-85242400D01*
X145592800Y-87833200D02*
X145592800Y-86207600D01*
X145288000Y-88138000D02*
X145592800Y-87833200D01*
X161290000Y-89204800D02*
X159816800Y-89204800D01*
X159308800Y-88696800D02*
X159308800Y-87477600D01*
X159816800Y-89204800D02*
X159308800Y-88696800D01*
X153974800Y-83870800D02*
X153974800Y-85242400D01*
X154432000Y-83413600D02*
X153974800Y-83870800D01*
X158902400Y-83413600D02*
X154432000Y-83413600D01*
X159308800Y-83820000D02*
X158902400Y-83413600D01*
X159308800Y-87477600D02*
X159308800Y-83820000D01*
X140766800Y-84582000D02*
X140157200Y-84582000D01*
X141681200Y-83667600D02*
X140766800Y-84582000D01*
D20*
G36*
X114833400Y-102184200D02*
X114853400Y-102184200D01*
X114853400Y-102438200D01*
X114833400Y-102438200D01*
X114833400Y-104724200D01*
X114853400Y-104724200D01*
X114853400Y-104978200D01*
X114833400Y-104978200D01*
X114833400Y-104998200D01*
X114579400Y-104998200D01*
X114579400Y-104978200D01*
X114559400Y-104978200D01*
X114559400Y-104724200D01*
X114579400Y-104724200D01*
X114579400Y-102438200D01*
X114559400Y-102438200D01*
X114559400Y-102184200D01*
X114579400Y-102184200D01*
X114579400Y-102164200D01*
X114833400Y-102164200D01*
X114833400Y-102184200D01*
X114833400Y-102184200D01*
G37*
X114833400Y-102184200D02*
X114853400Y-102184200D01*
X114853400Y-102438200D01*
X114833400Y-102438200D01*
X114833400Y-104724200D01*
X114853400Y-104724200D01*
X114853400Y-104978200D01*
X114833400Y-104978200D01*
X114833400Y-104998200D01*
X114579400Y-104998200D01*
X114579400Y-104978200D01*
X114559400Y-104978200D01*
X114559400Y-104724200D01*
X114579400Y-104724200D01*
X114579400Y-102438200D01*
X114559400Y-102438200D01*
X114559400Y-102184200D01*
X114579400Y-102184200D01*
X114579400Y-102164200D01*
X114833400Y-102164200D01*
X114833400Y-102184200D01*
G36*
X144556038Y-90710767D02*
X144658020Y-90957583D01*
X144556362Y-91202401D01*
X144556038Y-91574367D01*
X144647499Y-91795720D01*
X144556362Y-92015201D01*
X144556038Y-92387167D01*
X144698083Y-92730943D01*
X144960873Y-92994192D01*
X145304401Y-93136838D01*
X145442400Y-93136958D01*
X145442400Y-95250000D01*
X145500252Y-95540839D01*
X145664999Y-95787401D01*
X147086628Y-97209030D01*
X146985008Y-97310473D01*
X146842362Y-97654001D01*
X146842038Y-98025967D01*
X146966400Y-98326947D01*
X146966400Y-100426400D01*
X147024252Y-100717239D01*
X147106278Y-100840000D01*
X146710400Y-100840000D01*
X146419561Y-100897852D01*
X146172999Y-101062599D01*
X145735198Y-101500400D01*
X137056400Y-101500400D01*
X137056400Y-97753337D01*
X137384143Y-97617917D01*
X137647392Y-97355127D01*
X137790038Y-97011599D01*
X137790362Y-96639633D01*
X137648317Y-96295857D01*
X137385527Y-96032608D01*
X137041999Y-95889962D01*
X136670033Y-95889638D01*
X136326257Y-96031683D01*
X136296534Y-96061354D01*
X136217127Y-95981808D01*
X135873599Y-95839162D01*
X135501633Y-95838838D01*
X135157857Y-95980883D01*
X134894608Y-96243673D01*
X134751962Y-96587201D01*
X134751638Y-96959167D01*
X134825200Y-97137201D01*
X134825200Y-101955600D01*
X134883052Y-102246439D01*
X135047799Y-102493001D01*
X135594798Y-103040000D01*
X133400000Y-103040000D01*
X133109161Y-103097852D01*
X132862599Y-103262599D01*
X132060000Y-104065198D01*
X132060000Y-99134879D01*
X132385167Y-99135162D01*
X132728943Y-98993117D01*
X132992192Y-98730327D01*
X133099873Y-98471004D01*
X133281167Y-98471162D01*
X133624943Y-98329117D01*
X133888192Y-98066327D01*
X134030838Y-97722799D01*
X134031162Y-97350833D01*
X133889117Y-97007057D01*
X133856000Y-96973882D01*
X133856000Y-96167886D01*
X133989792Y-96034327D01*
X134132438Y-95690799D01*
X134132762Y-95318833D01*
X133990717Y-94975057D01*
X133727927Y-94711808D01*
X133384399Y-94569162D01*
X133012433Y-94568838D01*
X132926515Y-94604339D01*
X132730327Y-94407808D01*
X132711021Y-94399791D01*
X133350812Y-93760000D01*
X143500000Y-93760000D01*
X143790839Y-93702148D01*
X144037401Y-93537401D01*
X144202148Y-93290839D01*
X144260000Y-93000000D01*
X144202148Y-92709161D01*
X144037401Y-92462599D01*
X143790839Y-92297852D01*
X143500000Y-92240000D01*
X134234402Y-92240000D01*
X135950802Y-90523600D01*
X144556201Y-90523600D01*
X144556038Y-90710767D01*
X144556038Y-90710767D01*
G37*
X144556038Y-90710767D02*
X144658020Y-90957583D01*
X144556362Y-91202401D01*
X144556038Y-91574367D01*
X144647499Y-91795720D01*
X144556362Y-92015201D01*
X144556038Y-92387167D01*
X144698083Y-92730943D01*
X144960873Y-92994192D01*
X145304401Y-93136838D01*
X145442400Y-93136958D01*
X145442400Y-95250000D01*
X145500252Y-95540839D01*
X145664999Y-95787401D01*
X147086628Y-97209030D01*
X146985008Y-97310473D01*
X146842362Y-97654001D01*
X146842038Y-98025967D01*
X146966400Y-98326947D01*
X146966400Y-100426400D01*
X147024252Y-100717239D01*
X147106278Y-100840000D01*
X146710400Y-100840000D01*
X146419561Y-100897852D01*
X146172999Y-101062599D01*
X145735198Y-101500400D01*
X137056400Y-101500400D01*
X137056400Y-97753337D01*
X137384143Y-97617917D01*
X137647392Y-97355127D01*
X137790038Y-97011599D01*
X137790362Y-96639633D01*
X137648317Y-96295857D01*
X137385527Y-96032608D01*
X137041999Y-95889962D01*
X136670033Y-95889638D01*
X136326257Y-96031683D01*
X136296534Y-96061354D01*
X136217127Y-95981808D01*
X135873599Y-95839162D01*
X135501633Y-95838838D01*
X135157857Y-95980883D01*
X134894608Y-96243673D01*
X134751962Y-96587201D01*
X134751638Y-96959167D01*
X134825200Y-97137201D01*
X134825200Y-101955600D01*
X134883052Y-102246439D01*
X135047799Y-102493001D01*
X135594798Y-103040000D01*
X133400000Y-103040000D01*
X133109161Y-103097852D01*
X132862599Y-103262599D01*
X132060000Y-104065198D01*
X132060000Y-99134879D01*
X132385167Y-99135162D01*
X132728943Y-98993117D01*
X132992192Y-98730327D01*
X133099873Y-98471004D01*
X133281167Y-98471162D01*
X133624943Y-98329117D01*
X133888192Y-98066327D01*
X134030838Y-97722799D01*
X134031162Y-97350833D01*
X133889117Y-97007057D01*
X133856000Y-96973882D01*
X133856000Y-96167886D01*
X133989792Y-96034327D01*
X134132438Y-95690799D01*
X134132762Y-95318833D01*
X133990717Y-94975057D01*
X133727927Y-94711808D01*
X133384399Y-94569162D01*
X133012433Y-94568838D01*
X132926515Y-94604339D01*
X132730327Y-94407808D01*
X132711021Y-94399791D01*
X133350812Y-93760000D01*
X143500000Y-93760000D01*
X143790839Y-93702148D01*
X144037401Y-93537401D01*
X144202148Y-93290839D01*
X144260000Y-93000000D01*
X144202148Y-92709161D01*
X144037401Y-92462599D01*
X143790839Y-92297852D01*
X143500000Y-92240000D01*
X134234402Y-92240000D01*
X135950802Y-90523600D01*
X144556201Y-90523600D01*
X144556038Y-90710767D01*
G36*
X162296918Y-77533760D02*
X160274000Y-77533760D01*
X160038683Y-77578038D01*
X159822559Y-77717110D01*
X159677569Y-77929310D01*
X159626560Y-78181200D01*
X159626560Y-79908400D01*
X159670838Y-80143717D01*
X159809910Y-80359841D01*
X160022110Y-80504831D01*
X160063439Y-80513200D01*
X160045585Y-80525130D01*
X159720729Y-81011311D01*
X159606655Y-81584800D01*
X159720729Y-82158289D01*
X160045585Y-82644470D01*
X160360366Y-82854800D01*
X160045585Y-83065130D01*
X159873239Y-83323064D01*
X159846201Y-83282599D01*
X159439801Y-82876199D01*
X159193239Y-82711452D01*
X158902400Y-82653600D01*
X154432000Y-82653600D01*
X154189414Y-82701854D01*
X154141160Y-82711452D01*
X153894599Y-82876199D01*
X153437399Y-83333399D01*
X153272652Y-83579961D01*
X153214800Y-83870800D01*
X153214800Y-83962880D01*
X152906358Y-84168974D01*
X152901562Y-84143483D01*
X152762490Y-83927359D01*
X152550290Y-83782369D01*
X152298400Y-83731360D01*
X150571200Y-83731360D01*
X150335883Y-83775638D01*
X150119759Y-83914710D01*
X149974769Y-84126910D01*
X149923760Y-84378800D01*
X149923760Y-84482400D01*
X149321843Y-84482400D01*
X149321962Y-84346033D01*
X149179917Y-84002257D01*
X148917127Y-83739008D01*
X148573599Y-83596362D01*
X148526723Y-83596321D01*
X148467001Y-83536599D01*
X148220439Y-83371852D01*
X147929600Y-83314000D01*
X146120754Y-83314000D01*
X146231801Y-83239801D01*
X147787202Y-81684400D01*
X154736800Y-81684400D01*
X155027639Y-81626548D01*
X155274201Y-81461801D01*
X155892480Y-80843522D01*
X155937967Y-80843562D01*
X156281743Y-80701517D01*
X156544992Y-80438727D01*
X156687638Y-80095199D01*
X156687962Y-79723233D01*
X156674677Y-79691081D01*
X156688143Y-79685517D01*
X156951392Y-79422727D01*
X157094038Y-79079199D01*
X157094362Y-78707233D01*
X156952317Y-78363457D01*
X156689527Y-78100208D01*
X156345999Y-77957562D01*
X155974033Y-77957238D01*
X155630257Y-78099283D01*
X155597082Y-78132400D01*
X148488400Y-78132400D01*
X148197561Y-78190252D01*
X147950999Y-78354999D01*
X145074798Y-81231200D01*
X140563600Y-81231200D01*
X140272761Y-81289052D01*
X140026199Y-81453799D01*
X138470798Y-83009200D01*
X133400800Y-83009200D01*
X133109961Y-83067052D01*
X132863399Y-83231799D01*
X131338759Y-84756439D01*
X131338762Y-84752433D01*
X131196717Y-84408657D01*
X130933927Y-84145408D01*
X130590399Y-84002762D01*
X130229155Y-84002447D01*
X133692880Y-80538722D01*
X133738367Y-80538762D01*
X134082143Y-80396717D01*
X134345392Y-80133927D01*
X134488038Y-79790399D01*
X134488362Y-79418433D01*
X134346317Y-79074657D01*
X134083527Y-78811408D01*
X133739999Y-78668762D01*
X133368033Y-78668438D01*
X133024257Y-78810483D01*
X132761008Y-79073273D01*
X132618362Y-79416801D01*
X132618321Y-79463677D01*
X129588800Y-82493198D01*
X129588800Y-81944063D01*
X129620992Y-81911927D01*
X129763638Y-81568399D01*
X129763962Y-81196433D01*
X129621917Y-80852657D01*
X129359127Y-80589408D01*
X129015599Y-80446762D01*
X128643633Y-80446438D01*
X128299857Y-80588483D01*
X128036608Y-80851273D01*
X127893962Y-81194801D01*
X127893638Y-81566767D01*
X128035683Y-81910543D01*
X128068800Y-81943718D01*
X128068800Y-82489198D01*
X126247047Y-84310951D01*
X125912257Y-84449283D01*
X125649008Y-84712073D01*
X125509178Y-85048820D01*
X124602398Y-85955600D01*
X118008400Y-85955600D01*
X117717561Y-86013452D01*
X117470999Y-86178199D01*
X116658199Y-86990999D01*
X116493452Y-87237561D01*
X116435600Y-87528400D01*
X116435600Y-90718798D01*
X115995697Y-91158701D01*
X115950815Y-91091530D01*
X115936487Y-91081957D01*
X115957717Y-91077962D01*
X116173841Y-90938890D01*
X116318831Y-90726690D01*
X116369840Y-90474800D01*
X116369840Y-88747600D01*
X116325562Y-88512283D01*
X116186490Y-88296159D01*
X115974290Y-88151169D01*
X115722400Y-88100160D01*
X113753128Y-88100160D01*
X113794038Y-81288483D01*
X120036520Y-81288483D01*
X120170356Y-81733554D01*
X120464325Y-82093529D01*
X120873674Y-82313606D01*
X120912456Y-82318403D01*
X121095200Y-82192961D01*
X121095200Y-81101600D01*
X121349200Y-81101600D01*
X121349200Y-82192961D01*
X121531944Y-82318403D01*
X121570726Y-82313606D01*
X121980075Y-82093529D01*
X122274044Y-81733554D01*
X122407880Y-81288483D01*
X124886520Y-81288483D01*
X125020356Y-81733554D01*
X125314325Y-82093529D01*
X125723674Y-82313606D01*
X125762456Y-82318403D01*
X125945200Y-82192961D01*
X125945200Y-81101600D01*
X126199200Y-81101600D01*
X126199200Y-82192961D01*
X126381944Y-82318403D01*
X126420726Y-82313606D01*
X126830075Y-82093529D01*
X127124044Y-81733554D01*
X127257880Y-81288483D01*
X127102348Y-81101600D01*
X126199200Y-81101600D01*
X125945200Y-81101600D01*
X125042052Y-81101600D01*
X124886520Y-81288483D01*
X122407880Y-81288483D01*
X122252348Y-81101600D01*
X121349200Y-81101600D01*
X121095200Y-81101600D01*
X120192052Y-81101600D01*
X120036520Y-81288483D01*
X113794038Y-81288483D01*
X113797808Y-80660717D01*
X120036520Y-80660717D01*
X120192052Y-80847600D01*
X121095200Y-80847600D01*
X121095200Y-79756239D01*
X121349200Y-79756239D01*
X121349200Y-80847600D01*
X122252348Y-80847600D01*
X122407880Y-80660717D01*
X124886520Y-80660717D01*
X125042052Y-80847600D01*
X125945200Y-80847600D01*
X125945200Y-79756239D01*
X126199200Y-79756239D01*
X126199200Y-80847600D01*
X127102348Y-80847600D01*
X127257880Y-80660717D01*
X127124044Y-80215646D01*
X126830075Y-79855671D01*
X126420726Y-79635594D01*
X126381944Y-79630797D01*
X126199200Y-79756239D01*
X125945200Y-79756239D01*
X125762456Y-79630797D01*
X125723674Y-79635594D01*
X125314325Y-79855671D01*
X125020356Y-80215646D01*
X124886520Y-80660717D01*
X122407880Y-80660717D01*
X122274044Y-80215646D01*
X121980075Y-79855671D01*
X121570726Y-79635594D01*
X121531944Y-79630797D01*
X121349200Y-79756239D01*
X121095200Y-79756239D01*
X120912456Y-79630797D01*
X120873674Y-79635594D01*
X120464325Y-79855671D01*
X120170356Y-80215646D01*
X120036520Y-80660717D01*
X113797808Y-80660717D01*
X113806698Y-79180710D01*
X114420442Y-79795526D01*
X115296713Y-80159385D01*
X116245525Y-80160213D01*
X117122429Y-79797884D01*
X117793926Y-79127558D01*
X118138680Y-78297296D01*
X119676944Y-78297296D01*
X119799553Y-78768301D01*
X120093075Y-79156533D01*
X120512824Y-79402886D01*
X120604591Y-79418062D01*
X120795200Y-79293331D01*
X120795200Y-78101600D01*
X121049200Y-78101600D01*
X121049200Y-79293331D01*
X121239809Y-79418062D01*
X121331576Y-79402886D01*
X121751325Y-79156533D01*
X122044847Y-78768301D01*
X122167456Y-78297296D01*
X125126944Y-78297296D01*
X125249553Y-78768301D01*
X125543075Y-79156533D01*
X125962824Y-79402886D01*
X126054591Y-79418062D01*
X126245200Y-79293331D01*
X126245200Y-78101600D01*
X126499200Y-78101600D01*
X126499200Y-79293331D01*
X126689809Y-79418062D01*
X126781576Y-79402886D01*
X127201325Y-79156533D01*
X127494847Y-78768301D01*
X127617456Y-78297296D01*
X127454747Y-78101600D01*
X126499200Y-78101600D01*
X126245200Y-78101600D01*
X125289653Y-78101600D01*
X125126944Y-78297296D01*
X122167456Y-78297296D01*
X122004747Y-78101600D01*
X121049200Y-78101600D01*
X120795200Y-78101600D01*
X119839653Y-78101600D01*
X119676944Y-78297296D01*
X118138680Y-78297296D01*
X118157785Y-78251287D01*
X118158308Y-77651904D01*
X119676944Y-77651904D01*
X119839653Y-77847600D01*
X120795200Y-77847600D01*
X120795200Y-76655869D01*
X121049200Y-76655869D01*
X121049200Y-77847600D01*
X122004747Y-77847600D01*
X122167456Y-77651904D01*
X125126944Y-77651904D01*
X125289653Y-77847600D01*
X126245200Y-77847600D01*
X126245200Y-76655869D01*
X126499200Y-76655869D01*
X126499200Y-77847600D01*
X127454747Y-77847600D01*
X127617456Y-77651904D01*
X127494847Y-77180899D01*
X127201325Y-76792667D01*
X126781576Y-76546314D01*
X126689809Y-76531138D01*
X126499200Y-76655869D01*
X126245200Y-76655869D01*
X126054591Y-76531138D01*
X125962824Y-76546314D01*
X125543075Y-76792667D01*
X125249553Y-77180899D01*
X125126944Y-77651904D01*
X122167456Y-77651904D01*
X122044847Y-77180899D01*
X121751325Y-76792667D01*
X121331576Y-76546314D01*
X121239809Y-76531138D01*
X121049200Y-76655869D01*
X120795200Y-76655869D01*
X120604591Y-76531138D01*
X120512824Y-76546314D01*
X120093075Y-76792667D01*
X119799553Y-77180899D01*
X119676944Y-77651904D01*
X118158308Y-77651904D01*
X118158613Y-77302475D01*
X117796284Y-76425571D01*
X117367585Y-75996123D01*
X155324529Y-75685000D01*
X162275168Y-75685000D01*
X162296918Y-77533760D01*
X162296918Y-77533760D01*
G37*
X162296918Y-77533760D02*
X160274000Y-77533760D01*
X160038683Y-77578038D01*
X159822559Y-77717110D01*
X159677569Y-77929310D01*
X159626560Y-78181200D01*
X159626560Y-79908400D01*
X159670838Y-80143717D01*
X159809910Y-80359841D01*
X160022110Y-80504831D01*
X160063439Y-80513200D01*
X160045585Y-80525130D01*
X159720729Y-81011311D01*
X159606655Y-81584800D01*
X159720729Y-82158289D01*
X160045585Y-82644470D01*
X160360366Y-82854800D01*
X160045585Y-83065130D01*
X159873239Y-83323064D01*
X159846201Y-83282599D01*
X159439801Y-82876199D01*
X159193239Y-82711452D01*
X158902400Y-82653600D01*
X154432000Y-82653600D01*
X154189414Y-82701854D01*
X154141160Y-82711452D01*
X153894599Y-82876199D01*
X153437399Y-83333399D01*
X153272652Y-83579961D01*
X153214800Y-83870800D01*
X153214800Y-83962880D01*
X152906358Y-84168974D01*
X152901562Y-84143483D01*
X152762490Y-83927359D01*
X152550290Y-83782369D01*
X152298400Y-83731360D01*
X150571200Y-83731360D01*
X150335883Y-83775638D01*
X150119759Y-83914710D01*
X149974769Y-84126910D01*
X149923760Y-84378800D01*
X149923760Y-84482400D01*
X149321843Y-84482400D01*
X149321962Y-84346033D01*
X149179917Y-84002257D01*
X148917127Y-83739008D01*
X148573599Y-83596362D01*
X148526723Y-83596321D01*
X148467001Y-83536599D01*
X148220439Y-83371852D01*
X147929600Y-83314000D01*
X146120754Y-83314000D01*
X146231801Y-83239801D01*
X147787202Y-81684400D01*
X154736800Y-81684400D01*
X155027639Y-81626548D01*
X155274201Y-81461801D01*
X155892480Y-80843522D01*
X155937967Y-80843562D01*
X156281743Y-80701517D01*
X156544992Y-80438727D01*
X156687638Y-80095199D01*
X156687962Y-79723233D01*
X156674677Y-79691081D01*
X156688143Y-79685517D01*
X156951392Y-79422727D01*
X157094038Y-79079199D01*
X157094362Y-78707233D01*
X156952317Y-78363457D01*
X156689527Y-78100208D01*
X156345999Y-77957562D01*
X155974033Y-77957238D01*
X155630257Y-78099283D01*
X155597082Y-78132400D01*
X148488400Y-78132400D01*
X148197561Y-78190252D01*
X147950999Y-78354999D01*
X145074798Y-81231200D01*
X140563600Y-81231200D01*
X140272761Y-81289052D01*
X140026199Y-81453799D01*
X138470798Y-83009200D01*
X133400800Y-83009200D01*
X133109961Y-83067052D01*
X132863399Y-83231799D01*
X131338759Y-84756439D01*
X131338762Y-84752433D01*
X131196717Y-84408657D01*
X130933927Y-84145408D01*
X130590399Y-84002762D01*
X130229155Y-84002447D01*
X133692880Y-80538722D01*
X133738367Y-80538762D01*
X134082143Y-80396717D01*
X134345392Y-80133927D01*
X134488038Y-79790399D01*
X134488362Y-79418433D01*
X134346317Y-79074657D01*
X134083527Y-78811408D01*
X133739999Y-78668762D01*
X133368033Y-78668438D01*
X133024257Y-78810483D01*
X132761008Y-79073273D01*
X132618362Y-79416801D01*
X132618321Y-79463677D01*
X129588800Y-82493198D01*
X129588800Y-81944063D01*
X129620992Y-81911927D01*
X129763638Y-81568399D01*
X129763962Y-81196433D01*
X129621917Y-80852657D01*
X129359127Y-80589408D01*
X129015599Y-80446762D01*
X128643633Y-80446438D01*
X128299857Y-80588483D01*
X128036608Y-80851273D01*
X127893962Y-81194801D01*
X127893638Y-81566767D01*
X128035683Y-81910543D01*
X128068800Y-81943718D01*
X128068800Y-82489198D01*
X126247047Y-84310951D01*
X125912257Y-84449283D01*
X125649008Y-84712073D01*
X125509178Y-85048820D01*
X124602398Y-85955600D01*
X118008400Y-85955600D01*
X117717561Y-86013452D01*
X117470999Y-86178199D01*
X116658199Y-86990999D01*
X116493452Y-87237561D01*
X116435600Y-87528400D01*
X116435600Y-90718798D01*
X115995697Y-91158701D01*
X115950815Y-91091530D01*
X115936487Y-91081957D01*
X115957717Y-91077962D01*
X116173841Y-90938890D01*
X116318831Y-90726690D01*
X116369840Y-90474800D01*
X116369840Y-88747600D01*
X116325562Y-88512283D01*
X116186490Y-88296159D01*
X115974290Y-88151169D01*
X115722400Y-88100160D01*
X113753128Y-88100160D01*
X113794038Y-81288483D01*
X120036520Y-81288483D01*
X120170356Y-81733554D01*
X120464325Y-82093529D01*
X120873674Y-82313606D01*
X120912456Y-82318403D01*
X121095200Y-82192961D01*
X121095200Y-81101600D01*
X121349200Y-81101600D01*
X121349200Y-82192961D01*
X121531944Y-82318403D01*
X121570726Y-82313606D01*
X121980075Y-82093529D01*
X122274044Y-81733554D01*
X122407880Y-81288483D01*
X124886520Y-81288483D01*
X125020356Y-81733554D01*
X125314325Y-82093529D01*
X125723674Y-82313606D01*
X125762456Y-82318403D01*
X125945200Y-82192961D01*
X125945200Y-81101600D01*
X126199200Y-81101600D01*
X126199200Y-82192961D01*
X126381944Y-82318403D01*
X126420726Y-82313606D01*
X126830075Y-82093529D01*
X127124044Y-81733554D01*
X127257880Y-81288483D01*
X127102348Y-81101600D01*
X126199200Y-81101600D01*
X125945200Y-81101600D01*
X125042052Y-81101600D01*
X124886520Y-81288483D01*
X122407880Y-81288483D01*
X122252348Y-81101600D01*
X121349200Y-81101600D01*
X121095200Y-81101600D01*
X120192052Y-81101600D01*
X120036520Y-81288483D01*
X113794038Y-81288483D01*
X113797808Y-80660717D01*
X120036520Y-80660717D01*
X120192052Y-80847600D01*
X121095200Y-80847600D01*
X121095200Y-79756239D01*
X121349200Y-79756239D01*
X121349200Y-80847600D01*
X122252348Y-80847600D01*
X122407880Y-80660717D01*
X124886520Y-80660717D01*
X125042052Y-80847600D01*
X125945200Y-80847600D01*
X125945200Y-79756239D01*
X126199200Y-79756239D01*
X126199200Y-80847600D01*
X127102348Y-80847600D01*
X127257880Y-80660717D01*
X127124044Y-80215646D01*
X126830075Y-79855671D01*
X126420726Y-79635594D01*
X126381944Y-79630797D01*
X126199200Y-79756239D01*
X125945200Y-79756239D01*
X125762456Y-79630797D01*
X125723674Y-79635594D01*
X125314325Y-79855671D01*
X125020356Y-80215646D01*
X124886520Y-80660717D01*
X122407880Y-80660717D01*
X122274044Y-80215646D01*
X121980075Y-79855671D01*
X121570726Y-79635594D01*
X121531944Y-79630797D01*
X121349200Y-79756239D01*
X121095200Y-79756239D01*
X120912456Y-79630797D01*
X120873674Y-79635594D01*
X120464325Y-79855671D01*
X120170356Y-80215646D01*
X120036520Y-80660717D01*
X113797808Y-80660717D01*
X113806698Y-79180710D01*
X114420442Y-79795526D01*
X115296713Y-80159385D01*
X116245525Y-80160213D01*
X117122429Y-79797884D01*
X117793926Y-79127558D01*
X118138680Y-78297296D01*
X119676944Y-78297296D01*
X119799553Y-78768301D01*
X120093075Y-79156533D01*
X120512824Y-79402886D01*
X120604591Y-79418062D01*
X120795200Y-79293331D01*
X120795200Y-78101600D01*
X121049200Y-78101600D01*
X121049200Y-79293331D01*
X121239809Y-79418062D01*
X121331576Y-79402886D01*
X121751325Y-79156533D01*
X122044847Y-78768301D01*
X122167456Y-78297296D01*
X125126944Y-78297296D01*
X125249553Y-78768301D01*
X125543075Y-79156533D01*
X125962824Y-79402886D01*
X126054591Y-79418062D01*
X126245200Y-79293331D01*
X126245200Y-78101600D01*
X126499200Y-78101600D01*
X126499200Y-79293331D01*
X126689809Y-79418062D01*
X126781576Y-79402886D01*
X127201325Y-79156533D01*
X127494847Y-78768301D01*
X127617456Y-78297296D01*
X127454747Y-78101600D01*
X126499200Y-78101600D01*
X126245200Y-78101600D01*
X125289653Y-78101600D01*
X125126944Y-78297296D01*
X122167456Y-78297296D01*
X122004747Y-78101600D01*
X121049200Y-78101600D01*
X120795200Y-78101600D01*
X119839653Y-78101600D01*
X119676944Y-78297296D01*
X118138680Y-78297296D01*
X118157785Y-78251287D01*
X118158308Y-77651904D01*
X119676944Y-77651904D01*
X119839653Y-77847600D01*
X120795200Y-77847600D01*
X120795200Y-76655869D01*
X121049200Y-76655869D01*
X121049200Y-77847600D01*
X122004747Y-77847600D01*
X122167456Y-77651904D01*
X125126944Y-77651904D01*
X125289653Y-77847600D01*
X126245200Y-77847600D01*
X126245200Y-76655869D01*
X126499200Y-76655869D01*
X126499200Y-77847600D01*
X127454747Y-77847600D01*
X127617456Y-77651904D01*
X127494847Y-77180899D01*
X127201325Y-76792667D01*
X126781576Y-76546314D01*
X126689809Y-76531138D01*
X126499200Y-76655869D01*
X126245200Y-76655869D01*
X126054591Y-76531138D01*
X125962824Y-76546314D01*
X125543075Y-76792667D01*
X125249553Y-77180899D01*
X125126944Y-77651904D01*
X122167456Y-77651904D01*
X122044847Y-77180899D01*
X121751325Y-76792667D01*
X121331576Y-76546314D01*
X121239809Y-76531138D01*
X121049200Y-76655869D01*
X120795200Y-76655869D01*
X120604591Y-76531138D01*
X120512824Y-76546314D01*
X120093075Y-76792667D01*
X119799553Y-77180899D01*
X119676944Y-77651904D01*
X118158308Y-77651904D01*
X118158613Y-77302475D01*
X117796284Y-76425571D01*
X117367585Y-75996123D01*
X155324529Y-75685000D01*
X162275168Y-75685000D01*
X162296918Y-77533760D01*
G36*
X156641800Y-87655400D02*
X156661800Y-87655400D01*
X156661800Y-87909400D01*
X156641800Y-87909400D01*
X156641800Y-87929400D01*
X156387800Y-87929400D01*
X156387800Y-87909400D01*
X156367800Y-87909400D01*
X156367800Y-87655400D01*
X156387800Y-87655400D01*
X156387800Y-87635400D01*
X156641800Y-87635400D01*
X156641800Y-87655400D01*
X156641800Y-87655400D01*
G37*
X156641800Y-87655400D02*
X156661800Y-87655400D01*
X156661800Y-87909400D01*
X156641800Y-87909400D01*
X156641800Y-87929400D01*
X156387800Y-87929400D01*
X156387800Y-87909400D01*
X156367800Y-87909400D01*
X156367800Y-87655400D01*
X156387800Y-87655400D01*
X156387800Y-87635400D01*
X156641800Y-87635400D01*
X156641800Y-87655400D01*
G36*
X161417000Y-86537800D02*
X161437000Y-86537800D01*
X161437000Y-86791800D01*
X161417000Y-86791800D01*
X161417000Y-86811800D01*
X161163000Y-86811800D01*
X161163000Y-86791800D01*
X161143000Y-86791800D01*
X161143000Y-86537800D01*
X161163000Y-86537800D01*
X161163000Y-86517800D01*
X161417000Y-86517800D01*
X161417000Y-86537800D01*
X161417000Y-86537800D01*
G37*
X161417000Y-86537800D02*
X161437000Y-86537800D01*
X161437000Y-86791800D01*
X161417000Y-86791800D01*
X161417000Y-86811800D01*
X161163000Y-86811800D01*
X161163000Y-86791800D01*
X161143000Y-86791800D01*
X161143000Y-86537800D01*
X161163000Y-86537800D01*
X161163000Y-86517800D01*
X161417000Y-86517800D01*
X161417000Y-86537800D01*
M02*
