G04 #@! TF.FileFunction,Soldermask,Top*
%FSLAX46Y46*%
G04 Gerber Fmt 4.6, Leading zero omitted, Abs format (unit mm)*
G04 Created by KiCad (PCBNEW 4.0.4-stable) date 2017 January 13, Friday 02:46:46*
%MOMM*%
%LPD*%
G01*
G04 APERTURE LIST*
%ADD10C,0.100000*%
%ADD11R,2.032000X1.727200*%
%ADD12O,2.032000X1.727200*%
%ADD13R,0.550000X1.600000*%
%ADD14R,1.600000X0.550000*%
%ADD15R,1.550000X1.300000*%
%ADD16R,0.750000X1.200000*%
%ADD17R,1.200000X0.750000*%
%ADD18R,0.600000X0.800000*%
%ADD19R,0.900000X1.200000*%
%ADD20R,1.200000X0.900000*%
%ADD21R,2.000000X3.800000*%
%ADD22R,2.000000X1.500000*%
%ADD23R,1.727200X1.727200*%
%ADD24O,1.727200X1.727200*%
%ADD25R,2.000000X2.400000*%
%ADD26R,0.400000X1.650000*%
%ADD27O,1.100000X1.500000*%
%ADD28O,1.200000X1.700000*%
%ADD29R,1.425000X2.500000*%
%ADD30R,1.500000X0.900000*%
%ADD31C,10.000000*%
G04 APERTURE END LIST*
D10*
D11*
X114706400Y-89611200D03*
D12*
X114706400Y-92151200D03*
X114706400Y-94691200D03*
X114706400Y-97231200D03*
X114706400Y-99771200D03*
X114706400Y-102311200D03*
X114706400Y-104851200D03*
X114706400Y-107391200D03*
D13*
X136493600Y-95182000D03*
X137293600Y-95182000D03*
X138093600Y-95182000D03*
X138893600Y-95182000D03*
X139693600Y-95182000D03*
X140493600Y-95182000D03*
X141293600Y-95182000D03*
X142093600Y-95182000D03*
D14*
X143543600Y-93732000D03*
X143543600Y-92932000D03*
X143543600Y-92132000D03*
X143543600Y-91332000D03*
X143543600Y-90532000D03*
X143543600Y-89732000D03*
X143543600Y-88932000D03*
X143543600Y-88132000D03*
D13*
X142093600Y-86682000D03*
X141293600Y-86682000D03*
X140493600Y-86682000D03*
X139693600Y-86682000D03*
X138893600Y-86682000D03*
X138093600Y-86682000D03*
X137293600Y-86682000D03*
X136493600Y-86682000D03*
D14*
X135043600Y-88132000D03*
X135043600Y-88932000D03*
X135043600Y-89732000D03*
X135043600Y-90532000D03*
X135043600Y-91332000D03*
X135043600Y-92132000D03*
X135043600Y-92932000D03*
X135043600Y-93732000D03*
D15*
X128892200Y-96230000D03*
X120942200Y-96230000D03*
X128892200Y-91730000D03*
X120942200Y-91730000D03*
D16*
X145592800Y-99380000D03*
X145592800Y-101280000D03*
X131368800Y-79740800D03*
X131368800Y-77840800D03*
X146608800Y-79182000D03*
X146608800Y-77282000D03*
D17*
X118887200Y-88087200D03*
X120787200Y-88087200D03*
D18*
X122390800Y-85242400D03*
X124090800Y-85242400D03*
D19*
X128879600Y-86276000D03*
X128879600Y-88476000D03*
D20*
X125763200Y-98856800D03*
X123563200Y-98856800D03*
X151503200Y-79908400D03*
X153703200Y-79908400D03*
X151554000Y-77216000D03*
X153754000Y-77216000D03*
D21*
X142545200Y-79603600D03*
D22*
X136245200Y-79603600D03*
X136245200Y-81903600D03*
X136245200Y-77303600D03*
D17*
X132268000Y-82753200D03*
X130368000Y-82753200D03*
X149641600Y-81889600D03*
X147741600Y-81889600D03*
D16*
X134416800Y-100772000D03*
X134416800Y-98872000D03*
D20*
X119565600Y-85242400D03*
X117365600Y-85242400D03*
D11*
X114706400Y-110794800D03*
D12*
X114706400Y-113334800D03*
X114706400Y-115874800D03*
X114706400Y-118414800D03*
X114706400Y-120954800D03*
X114706400Y-123494800D03*
D23*
X151434800Y-85242400D03*
D24*
X151434800Y-87782400D03*
X153974800Y-85242400D03*
X153974800Y-87782400D03*
X156514800Y-85242400D03*
X156514800Y-87782400D03*
D11*
X161290000Y-79044800D03*
D12*
X161290000Y-81584800D03*
X161290000Y-84124800D03*
X161290000Y-86664800D03*
X161290000Y-89204800D03*
X161290000Y-91744800D03*
X161290000Y-94284800D03*
X161290000Y-96824800D03*
X161290000Y-99364800D03*
X161290000Y-101904800D03*
D11*
X161290000Y-105613200D03*
D12*
X161290000Y-108153200D03*
X161290000Y-110693200D03*
X161290000Y-113233200D03*
X161290000Y-115773200D03*
X161290000Y-118313200D03*
X161290000Y-120853200D03*
X161290000Y-123393200D03*
D25*
X142004000Y-100533200D03*
X137904000Y-100533200D03*
D26*
X124947200Y-80849600D03*
X124297200Y-80849600D03*
X123648100Y-80849600D03*
X122997200Y-80849600D03*
X122347200Y-80849600D03*
D27*
X126072200Y-80974600D03*
X121222200Y-80974600D03*
D28*
X126372200Y-77974600D03*
X120922200Y-77974600D03*
D29*
X124609700Y-77724600D03*
X122684700Y-77724600D03*
D30*
X152285200Y-94868800D03*
X157185200Y-94868800D03*
X157185200Y-91568800D03*
X152285200Y-91568800D03*
D31*
X126492000Y-120000000D03*
D10*
G36*
X122250200Y-116566907D02*
X121543093Y-115859800D01*
X122250200Y-115152693D01*
X122957307Y-115859800D01*
X122250200Y-116566907D01*
X122250200Y-116566907D01*
G37*
D31*
X138125200Y-120000000D03*
D10*
G36*
X133883400Y-116566907D02*
X133176293Y-115859800D01*
X133883400Y-115152693D01*
X134590507Y-115859800D01*
X133883400Y-116566907D01*
X133883400Y-116566907D01*
G37*
D31*
X150000000Y-120000000D03*
D10*
G36*
X145758200Y-116566907D02*
X145051093Y-115859800D01*
X145758200Y-115152693D01*
X146465307Y-115859800D01*
X145758200Y-116566907D01*
X145758200Y-116566907D01*
G37*
D31*
X126000000Y-132500000D03*
D10*
G36*
X121758200Y-129066907D02*
X121051093Y-128359800D01*
X121758200Y-127652693D01*
X122465307Y-128359800D01*
X121758200Y-129066907D01*
X121758200Y-129066907D01*
G37*
D31*
X138023600Y-132500000D03*
D10*
G36*
X133781800Y-129066907D02*
X133074693Y-128359800D01*
X133781800Y-127652693D01*
X134488907Y-128359800D01*
X133781800Y-129066907D01*
X133781800Y-129066907D01*
G37*
D31*
X150000000Y-132500000D03*
D10*
G36*
X145758200Y-129066907D02*
X145051093Y-128359800D01*
X145758200Y-127652693D01*
X146465307Y-128359800D01*
X145758200Y-129066907D01*
X145758200Y-129066907D01*
G37*
M02*
